<svg width="642" height="450" viewBox="0 0 642 450" fill="none" xmlns="http://www.w3.org/2000/svg">
<path opacity="0.1" d="M42.6844 229.008C42.6844 228.928 42.6844 228.843 42.6844 228.758C42.9685 222.716 44.0598 216.74 45.9291 210.988C46.0356 210.663 46.1422 210.332 46.2541 210.012C51.0137 196.138 60.1243 184.176 72.2274 175.908C85.794 166.653 102.262 162.661 118.554 164.678C134.847 166.694 149.848 174.581 160.755 186.865C161.897 180.39 163.702 174.049 166.142 167.944C183.919 170.194 201.861 170.864 219.756 169.944C208.79 175.007 197.42 179.142 185.764 182.304L186.18 183.851C199.26 180.295 211.981 175.527 224.178 169.608L227.86 167.821L223.779 168.088C204.767 169.334 185.68 168.786 166.771 166.45C170.862 156.68 176.536 147.654 183.564 139.735C214.231 136.641 244.659 130.196 273.072 117.42L272.417 115.964C244.76 128.409 215.121 134.805 185.2 137.953C195.328 127.082 207.841 118.718 221.752 113.521C235.663 108.324 250.59 106.437 265.355 108.008C280.119 109.58 294.317 114.566 306.826 122.575C319.335 130.584 329.813 141.394 337.433 154.154C340.267 126.637 351.683 100.712 370.061 80.0569C386.422 86.6023 403.315 91.7263 420.553 95.3724C446.478 100.889 473.01 103.004 499.48 101.662C488.514 106.725 477.144 110.859 465.488 114.022L465.904 115.569C478.98 112.012 491.698 107.244 503.891 101.326L507.573 99.5387L503.492 99.8054C458.373 102.773 413.162 95.6004 371.169 78.8139C372.749 77.0819 374.376 75.3891 376.049 73.7354C428.486 74.8023 485.596 74.2689 537.297 55.4218C556.456 67.2617 572.268 83.8153 583.228 103.506C594.188 123.197 599.931 145.369 599.91 167.912C599.91 192.696 593.107 226.779 581.263 260.973C575.985 276.277 569.773 291.242 562.663 305.783C559.046 313.145 555.204 320.299 551.171 327.148C546.308 335.462 540.955 343.478 535.139 351.154C534.095 352.53 533.038 353.882 531.969 355.208C526.01 362.76 519.321 369.706 512 375.944C510.519 377.181 509.029 378.36 507.53 379.48C503.513 382.521 499.234 385.199 494.744 387.482C486.928 391.403 478.861 393.702 470.608 394.033C469.948 394.06 469.282 394.076 468.621 394.076V394.348H110.588V394.076H110.322C108.258 394.068 106.211 393.707 104.269 393.009C91.6102 388.512 79.9528 370.454 70.2615 347.633C68.1303 342.571 66.0631 337.279 64.1185 331.837C62.4029 327.036 60.7726 322.145 59.2275 317.205C54.7345 302.723 50.9736 288.024 47.959 273.163C44.5439 256.241 42.6312 241.449 42.6312 232.087C42.6152 231.041 42.6152 230.027 42.6844 229.008Z" fill="white"/>
<g opacity="0.1">
<path opacity="0.1" d="M60.0847 320.535C62.1105 327.009 64.276 333.435 66.4974 339.714C67.1148 337.863 67.4262 335.924 67.4194 333.973C67.4194 327.729 64.3458 322.429 60.0847 320.535Z" fill="#3F3D56"/>
<path opacity="0.1" d="M38.3602 208.969C38.3602 221.241 40.833 240.629 45.3455 262.808C49.2979 282.287 54.2288 301.553 60.1196 320.535C62.1453 327.009 64.3108 333.435 66.5321 339.714C69.0818 346.846 71.7711 353.782 74.5862 360.417C82.2826 357.589 89.2014 352.979 94.7777 346.963C100.354 340.947 104.429 333.696 106.671 325.803C108.913 317.909 109.258 309.596 107.677 301.544C106.096 293.492 102.634 285.928 97.5751 279.47C102.905 272.674 106.462 264.657 107.925 256.142C109.388 247.628 108.712 238.882 105.957 230.694L66.6439 243.93L103.513 224.716C101.889 221.355 99.9102 218.179 97.6099 215.241C102.521 208.974 105.928 201.662 107.57 193.868C109.211 186.074 109.043 178.007 107.077 170.289C105.112 162.571 101.402 155.408 96.2339 149.351C91.0658 143.295 84.5773 138.507 77.2686 135.357C61.4002 146.193 49.4554 161.872 43.215 180.057L50.0257 185.134L42.719 181.337C40.2682 188.875 38.8374 196.709 38.465 204.627H40.5186L38.423 204.97C38.3602 206.292 38.3602 207.62 38.3602 208.969Z" fill="#70DDFF"/>
<path opacity="0.1" d="M45.3108 262.808C49.2632 282.287 54.1941 301.553 60.0849 320.535C62.1106 327.009 64.2761 333.435 66.4975 339.714C69.0471 346.846 71.7365 353.782 74.5516 360.417C82.2479 357.589 89.1668 352.979 94.743 346.963C100.319 340.947 104.395 333.696 106.636 325.803C108.878 317.909 109.223 309.597 107.642 301.544C106.061 293.492 102.6 285.928 97.5403 279.47C104.733 270.318 108.636 259.007 108.619 247.363C108.619 243.867 72.4908 253.027 45.3108 262.808Z" fill="black"/>
</g>
<path d="M123.22 348.252H84.4456V347.452H66.8638V348.252H27.9298C27.5854 348.252 27.2443 348.32 26.9261 348.452C26.6079 348.583 26.3188 348.777 26.0752 349.02C25.8317 349.264 25.6385 349.553 25.5067 349.871C25.3748 350.19 25.307 350.531 25.307 350.875V403.981C25.307 404.677 25.5833 405.344 26.0752 405.836C26.5671 406.328 27.2342 406.605 27.9298 406.605H123.22C123.915 406.605 124.583 406.328 125.074 405.836C125.566 405.344 125.843 404.677 125.843 403.981V350.875C125.843 350.531 125.775 350.19 125.643 349.871C125.511 349.553 125.318 349.264 125.074 349.02C124.831 348.777 124.542 348.583 124.224 348.452C123.905 348.32 123.564 348.252 123.22 348.252Z" fill="#8C8C8C"/>
<path d="M122.326 352.888H28.8234V405.645H122.326V352.888Z" fill="#1E1E1E"/>
<path d="M75.4949 351.449C76.0245 351.449 76.4539 351.02 76.4539 350.49C76.4539 349.96 76.0245 349.531 75.4949 349.531C74.9652 349.531 74.5359 349.96 74.5359 350.49C74.5359 351.02 74.9652 351.449 75.4949 351.449Z" fill="#6C63FF"/>
<path d="M128.468 404.686H119.343V404.028C119.343 404.011 119.339 403.994 119.333 403.979C119.326 403.963 119.317 403.948 119.304 403.936C119.292 403.924 119.278 403.915 119.262 403.908C119.246 403.901 119.229 403.898 119.212 403.898H116.084C116.067 403.898 116.05 403.901 116.034 403.908C116.018 403.915 116.004 403.924 115.991 403.936C115.979 403.948 115.97 403.963 115.963 403.979C115.957 403.994 115.953 404.011 115.953 404.028V404.686H113.998V404.028C113.998 404.011 113.994 403.994 113.988 403.979C113.981 403.963 113.972 403.948 113.96 403.936C113.948 403.924 113.933 403.915 113.917 403.908C113.902 403.901 113.885 403.898 113.868 403.898H110.739C110.722 403.898 110.705 403.901 110.689 403.908C110.673 403.915 110.659 403.924 110.647 403.936C110.635 403.948 110.625 403.963 110.618 403.979C110.612 403.994 110.608 404.011 110.608 404.028V404.686H108.653V404.028C108.653 404.011 108.65 403.994 108.643 403.979C108.637 403.963 108.627 403.948 108.615 403.936C108.603 403.924 108.588 403.915 108.573 403.908C108.557 403.901 108.54 403.898 108.523 403.898H105.394C105.377 403.898 105.36 403.901 105.344 403.908C105.328 403.915 105.314 403.924 105.302 403.936C105.29 403.948 105.28 403.963 105.274 403.979C105.267 403.994 105.264 404.011 105.264 404.028V404.686H103.308V404.028C103.308 404.011 103.305 403.994 103.298 403.979C103.292 403.963 103.282 403.948 103.27 403.936C103.258 403.924 103.244 403.915 103.228 403.908C103.212 403.901 103.195 403.898 103.178 403.898H100.049C100.032 403.898 100.015 403.901 99.9994 403.908C99.9835 403.915 99.9692 403.924 99.9571 403.936C99.945 403.948 99.9353 403.963 99.9288 403.979C99.9222 403.994 99.9189 404.011 99.9189 404.028V404.686H97.9635V404.028C97.9635 404.011 97.9601 403.994 97.9535 403.979C97.947 403.963 97.9374 403.948 97.9253 403.936C97.9132 403.924 97.8988 403.915 97.883 403.908C97.8672 403.901 97.8502 403.898 97.8331 403.898H94.7044C94.6873 403.898 94.6704 403.901 94.6545 403.908C94.6387 403.915 94.6244 403.924 94.6123 403.936C94.6002 403.948 94.5905 403.963 94.584 403.979C94.5774 403.994 94.5741 404.011 94.5741 404.028V404.686H92.6187V404.028C92.6187 404.011 92.6153 403.994 92.6087 403.979C92.6022 403.963 92.5926 403.948 92.5805 403.936C92.5684 403.924 92.554 403.915 92.5382 403.908C92.5224 403.901 92.5054 403.898 92.4883 403.898H89.3596C89.3425 403.898 89.3256 403.901 89.3097 403.908C89.2939 403.915 89.2795 403.924 89.2674 403.936C89.2553 403.948 89.2457 403.963 89.2392 403.979C89.2326 403.994 89.2293 404.011 89.2293 404.028V404.686H87.2738V404.028C87.2738 404.011 87.2705 403.994 87.2639 403.979C87.2574 403.963 87.2478 403.948 87.2357 403.936C87.2236 403.924 87.2092 403.915 87.1934 403.908C87.1776 403.901 87.1606 403.898 87.1435 403.898H62.6356C62.6185 403.898 62.6015 403.901 62.5857 403.908C62.5699 403.915 62.5555 403.924 62.5434 403.936C62.5313 403.948 62.5217 403.963 62.5152 403.979C62.5086 403.994 62.5052 404.011 62.5053 404.028V404.686H60.5498V404.028C60.5498 404.011 60.5465 403.994 60.5399 403.979C60.5334 403.963 60.5238 403.948 60.5117 403.936C60.4995 403.924 60.4852 403.915 60.4694 403.908C60.4535 403.901 60.4366 403.898 60.4195 403.898H57.2908C57.2737 403.898 57.2567 403.901 57.2409 403.908C57.2251 403.915 57.2107 403.924 57.1986 403.936C57.1865 403.948 57.1769 403.963 57.1704 403.979C57.1638 403.994 57.1604 404.011 57.1604 404.028V404.686H55.205V404.028C55.205 404.011 55.2017 403.994 55.1951 403.979C55.1886 403.963 55.179 403.948 55.1668 403.936C55.1547 403.924 55.1404 403.915 55.1246 403.908C55.1087 403.901 55.0918 403.898 55.0747 403.898H51.946C51.9289 403.898 51.9119 403.901 51.8961 403.908C51.8803 403.915 51.8659 403.924 51.8538 403.936C51.8417 403.948 51.8321 403.963 51.8256 403.979C51.819 403.994 51.8156 404.011 51.8156 404.028V404.686H49.8602V404.028C49.8602 404.011 49.8569 403.994 49.8503 403.979C49.8438 403.963 49.8342 403.948 49.822 403.936C49.8099 403.924 49.7956 403.915 49.7798 403.908C49.7639 403.901 49.747 403.898 49.7299 403.898H46.6012C46.5841 403.898 46.5671 403.901 46.5513 403.908C46.5355 403.915 46.5211 403.924 46.509 403.936C46.4969 403.948 46.4873 403.963 46.4808 403.979C46.4742 403.994 46.4708 404.011 46.4708 404.028V404.686H44.5154V404.028C44.5154 404.011 44.5121 403.994 44.5055 403.979C44.4989 403.963 44.4893 403.948 44.4772 403.936C44.4651 403.924 44.4508 403.915 44.435 403.908C44.4191 403.901 44.4022 403.898 44.3851 403.898H41.2564C41.2393 403.898 41.2223 403.901 41.2065 403.908C41.1907 403.915 41.1763 403.924 41.1642 403.936C41.1521 403.948 41.1425 403.963 41.136 403.979C41.1294 403.994 41.126 404.011 41.126 404.028V404.686H39.1706V404.028C39.1706 404.011 39.1672 403.994 39.1607 403.979C39.1541 403.963 39.1445 403.948 39.1324 403.936C39.1203 403.924 39.106 403.915 39.0901 403.908C39.0743 403.901 39.0574 403.898 39.0403 403.898H35.9116C35.8945 403.898 35.8775 403.901 35.8617 403.908C35.8459 403.915 35.8315 403.924 35.8194 403.936C35.8073 403.948 35.7977 403.963 35.7912 403.979C35.7846 403.994 35.7812 404.011 35.7812 404.028V404.686H33.8258V404.028C33.8258 404.011 33.8224 403.994 33.8159 403.979C33.8093 403.963 33.7997 403.948 33.7876 403.936C33.7755 403.924 33.7612 403.915 33.7453 403.908C33.7295 403.901 33.7126 403.898 33.6955 403.898H30.5668C30.5497 403.898 30.5327 403.901 30.5169 403.908C30.5011 403.915 30.4867 403.924 30.4746 403.936C30.4625 403.948 30.4529 403.963 30.4463 403.979C30.4398 403.994 30.4364 404.011 30.4364 404.028V404.686H24.4398C23.61 404.686 22.8143 405.016 22.2275 405.603C21.6408 406.19 21.3112 406.986 21.3112 407.815V409.231C21.3112 410.06 21.6408 410.856 22.2275 411.443C22.8143 412.03 23.61 412.36 24.4398 412.36H128.468C129.298 412.36 130.094 412.03 130.68 411.443C131.267 410.856 131.597 410.06 131.597 409.231V407.815C131.597 407.405 131.516 406.998 131.358 406.618C131.201 406.238 130.971 405.893 130.68 405.603C130.39 405.312 130.045 405.082 129.665 404.924C129.286 404.767 128.879 404.686 128.468 404.686Z" fill="#8C8C8C"/>
<path d="M60.9107 361.76H53.2947C52.6277 361.76 52.0869 362.301 52.0869 362.968C52.0869 363.635 52.6277 364.176 53.2947 364.176H60.9107C61.5778 364.176 62.1185 363.635 62.1185 362.968C62.1185 362.301 61.5778 361.76 60.9107 361.76Z" fill="#569CD6"/>
<path d="M95.6499 361.76H94.5359C93.8689 361.76 93.3281 362.301 93.3281 362.968C93.3281 363.635 93.8689 364.176 94.5359 364.176H95.6499C96.317 364.176 96.8577 363.635 96.8577 362.968C96.8577 362.301 96.317 361.76 95.6499 361.76Z" fill="#C586C0"/>
<path d="M102.709 361.76H101.595C100.928 361.76 100.387 362.301 100.387 362.968C100.387 363.635 100.928 364.176 101.595 364.176H102.709C103.376 364.176 103.917 363.635 103.917 362.968C103.917 362.301 103.376 361.76 102.709 361.76Z" fill="#C586C0"/>
<path d="M88.4048 361.76H66.856C66.1889 361.76 65.6482 362.301 65.6482 362.968C65.6482 363.635 66.1889 364.176 66.856 364.176H88.4048C89.0718 364.176 89.6126 363.635 89.6126 362.968C89.6126 362.301 89.0718 361.76 88.4048 361.76Z" fill="#DCDCAA"/>
<path d="M48.2784 377.368H40.6624C39.9953 377.368 39.4546 377.909 39.4546 378.576C39.4546 379.243 39.9953 379.784 40.6624 379.784H48.2784C48.9454 379.784 49.4862 379.243 49.4862 378.576C49.4862 377.909 48.9454 377.368 48.2784 377.368Z" fill="#C586C0"/>
<path d="M83.0175 377.368H81.9035C81.2364 377.368 80.6957 377.909 80.6957 378.576C80.6957 379.243 81.2364 379.784 81.9035 379.784H83.0175C83.6846 379.784 84.2253 379.243 84.2253 378.576C84.2253 377.909 83.6846 377.368 83.0175 377.368Z" fill="#4EC980"/>
<path d="M90.0769 377.368H88.9628C88.2957 377.368 87.755 377.909 87.755 378.576C87.755 379.243 88.2957 379.784 88.9628 379.784H90.0769C90.7439 379.784 91.2846 379.243 91.2846 378.576C91.2846 377.909 90.7439 377.368 90.0769 377.368Z" fill="#4EC980"/>
<path d="M75.7725 377.368H54.2236C53.5566 377.368 53.0159 377.909 53.0159 378.576C53.0159 379.243 53.5566 379.784 54.2236 379.784H75.7725C76.4395 379.784 76.9802 379.243 76.9802 378.576C76.9802 377.909 76.4395 377.368 75.7725 377.368Z" fill="#CE9178"/>
<path d="M89.7053 367.149H82.0892C81.4222 367.149 80.8815 367.689 80.8815 368.356C80.8815 369.023 81.4222 369.564 82.0892 369.564H89.7053C90.3723 369.564 90.9131 369.023 90.9131 368.356C90.9131 367.689 90.3723 367.149 89.7053 367.149Z" fill="#CE9178"/>
<path d="M103.267 367.149H95.6505C94.9835 367.149 94.4427 367.689 94.4427 368.356C94.4427 369.023 94.9835 369.564 95.6505 369.564H103.267C103.934 369.564 104.474 369.023 104.474 368.356C104.474 367.689 103.934 367.149 103.267 367.149Z" fill="#9CDCFE"/>
<path d="M110.326 367.149H109.212C108.545 367.149 108.004 367.689 108.004 368.356C108.004 369.023 108.545 369.564 109.212 369.564H110.326C110.993 369.564 111.534 369.023 111.534 368.356C111.534 367.689 110.993 367.149 110.326 367.149Z" fill="#F2F3F3"/>
<path d="M41.7765 367.149H40.6624C39.9953 367.149 39.4546 367.689 39.4546 368.356C39.4546 369.023 39.9953 369.564 40.6624 369.564H41.7765C42.4435 369.564 42.9842 369.023 42.9842 368.356C42.9842 367.689 42.4435 367.149 41.7765 367.149Z" fill="#569CD6"/>
<path d="M48.8358 367.149H47.7217C47.0547 367.149 46.5139 367.689 46.5139 368.356C46.5139 369.023 47.0547 369.564 47.7217 369.564H48.8358C49.5028 369.564 50.0436 369.023 50.0436 368.356C50.0436 367.689 49.5028 367.149 48.8358 367.149Z" fill="#569CD6"/>
<path d="M76.3298 367.149H54.781C54.114 367.149 53.5732 367.689 53.5732 368.356C53.5732 369.023 54.114 369.564 54.781 369.564H76.3298C76.9969 369.564 77.5376 369.023 77.5376 368.356C77.5376 367.689 76.9969 367.149 76.3298 367.149Z" fill="#4EC980"/>
<path d="M61.2829 374.767H68.8989C69.5659 374.767 70.1067 374.226 70.1067 373.559C70.1067 372.892 69.5659 372.351 68.8989 372.351H61.2829C60.6158 372.351 60.0751 372.892 60.0751 373.559C60.0751 374.226 60.6158 374.767 61.2829 374.767Z" fill="#9CDCFE"/>
<path d="M47.7217 374.767H55.3378C56.0048 374.767 56.5455 374.226 56.5455 373.559C56.5455 372.892 56.0048 372.351 55.3378 372.351H47.7217C47.0547 372.351 46.5139 372.892 46.5139 373.559C46.5139 374.226 47.0547 374.767 47.7217 374.767Z" fill="#9CDCFE"/>
<path d="M40.6624 374.767H41.7765C42.4435 374.767 42.9843 374.226 42.9843 373.559C42.9843 372.892 42.4435 372.351 41.7765 372.351H40.6624C39.9954 372.351 39.4546 372.892 39.4546 373.559C39.4546 374.226 39.9954 374.767 40.6624 374.767Z" fill="#C586C0"/>
<path d="M109.212 374.767H110.326C110.993 374.767 111.534 374.226 111.534 373.559C111.534 372.892 110.993 372.351 110.326 372.351H109.212C108.545 372.351 108.004 372.892 108.004 373.559C108.004 374.226 108.545 374.767 109.212 374.767Z" fill="#9CDCFE"/>
<path d="M102.153 374.767H103.267C103.934 374.767 104.474 374.226 104.474 373.559C104.474 372.892 103.934 372.351 103.267 372.351H102.153C101.485 372.351 100.945 372.892 100.945 373.559C100.945 374.226 101.485 374.767 102.153 374.767Z" fill="#9CDCFE"/>
<path d="M74.6584 374.767H96.2073C96.8743 374.767 97.415 374.226 97.415 373.559C97.415 372.892 96.8743 372.351 96.2073 372.351H74.6584C73.9914 372.351 73.4507 372.892 73.4507 373.559C73.4507 374.226 73.9914 374.767 74.6584 374.767Z" fill="#DCDCAA"/>
<path d="M60.9107 382.014H53.2947C52.6276 382.014 52.0869 382.554 52.0869 383.221C52.0869 383.888 52.6276 384.429 53.2947 384.429H60.9107C61.5778 384.429 62.1185 383.888 62.1185 383.221C62.1185 382.554 61.5778 382.014 60.9107 382.014Z" fill="#569CD6"/>
<path d="M95.6499 382.014H94.5358C93.8687 382.014 93.328 382.554 93.328 383.221C93.328 383.888 93.8687 384.429 94.5358 384.429H95.6499C96.3169 384.429 96.8576 383.888 96.8576 383.221C96.8576 382.554 96.3169 382.014 95.6499 382.014Z" fill="#C586C0"/>
<path d="M102.709 382.014H101.595C100.928 382.014 100.387 382.554 100.387 383.221C100.387 383.888 100.928 384.429 101.595 384.429H102.709C103.376 384.429 103.917 383.888 103.917 383.221C103.917 382.554 103.376 382.014 102.709 382.014Z" fill="#C586C0"/>
<path d="M88.4048 382.014H66.856C66.1889 382.014 65.6482 382.554 65.6482 383.221C65.6482 383.888 66.1889 384.429 66.856 384.429H88.4048C89.0718 384.429 89.6126 383.888 89.6126 383.221C89.6126 382.554 89.0718 382.014 88.4048 382.014Z" fill="#DCDCAA"/>
<path d="M89.7053 387.402H82.0893C81.4222 387.402 80.8815 387.943 80.8815 388.61C80.8815 389.277 81.4222 389.818 82.0893 389.818H89.7053C90.3723 389.818 90.9131 389.277 90.9131 388.61C90.9131 387.943 90.3723 387.402 89.7053 387.402Z" fill="#CE9178"/>
<path d="M103.267 387.402H95.6506C94.9835 387.402 94.4427 387.943 94.4427 388.61C94.4427 389.277 94.9835 389.818 95.6506 389.818H103.267C103.934 389.818 104.474 389.277 104.474 388.61C104.474 387.943 103.934 387.402 103.267 387.402Z" fill="#9CDCFE"/>
<path d="M110.326 387.402H109.212C108.545 387.402 108.004 387.943 108.004 388.61C108.004 389.277 108.545 389.818 109.212 389.818H110.326C110.993 389.818 111.534 389.277 111.534 388.61C111.534 387.943 110.993 387.402 110.326 387.402Z" fill="#F2F3F3"/>
<path d="M41.7764 387.402H40.6624C39.9953 387.402 39.4546 387.943 39.4546 388.61C39.4546 389.277 39.9953 389.818 40.6624 389.818H41.7764C42.4435 389.818 42.9842 389.277 42.9842 388.61C42.9842 387.943 42.4435 387.402 41.7764 387.402Z" fill="#569CD6"/>
<path d="M48.8357 387.402H47.7217C47.0547 387.402 46.5139 387.943 46.5139 388.61C46.5139 389.277 47.0547 389.818 47.7217 389.818H48.8357C49.5028 389.818 50.0435 389.277 50.0435 388.61C50.0435 387.943 49.5028 387.402 48.8357 387.402Z" fill="#569CD6"/>
<path d="M76.3297 387.402H54.7809C54.1139 387.402 53.5731 387.943 53.5731 388.61C53.5731 389.277 54.1139 389.818 54.7809 389.818H76.3297C76.9967 389.818 77.5375 389.277 77.5375 388.61C77.5375 387.943 76.9967 387.402 76.3297 387.402Z" fill="#4EC980"/>
<path d="M61.2829 395.021H68.8989C69.5659 395.021 70.1067 394.48 70.1067 393.813C70.1067 393.146 69.5659 392.605 68.8989 392.605H61.2829C60.6158 392.605 60.0751 393.146 60.0751 393.813C60.0751 394.48 60.6158 395.021 61.2829 395.021Z" fill="#9CDCFE"/>
<path d="M47.7216 395.021H55.3376C56.0047 395.021 56.5454 394.48 56.5454 393.813C56.5454 393.146 56.0047 392.605 55.3376 392.605H47.7216C47.0546 392.605 46.5138 393.146 46.5138 393.813C46.5138 394.48 47.0546 395.021 47.7216 395.021Z" fill="#9CDCFE"/>
<path d="M40.6624 395.021H41.7764C42.4435 395.021 42.9843 394.48 42.9843 393.813C42.9843 393.146 42.4435 392.605 41.7764 392.605H40.6624C39.9954 392.605 39.4546 393.146 39.4546 393.813C39.4546 394.48 39.9954 395.021 40.6624 395.021Z" fill="#C586C0"/>
<path d="M109.212 395.021H110.326C110.993 395.021 111.533 394.48 111.533 393.813C111.533 393.146 110.993 392.605 110.326 392.605H109.212C108.545 392.605 108.004 393.146 108.004 393.813C108.004 394.48 108.545 395.021 109.212 395.021Z" fill="#9CDCFE"/>
<path d="M102.152 395.021H103.266C103.933 395.021 104.474 394.48 104.474 393.813C104.474 393.146 103.933 392.605 103.266 392.605H102.152C101.485 392.605 100.945 393.146 100.945 393.813C100.945 394.48 101.485 395.021 102.152 395.021Z" fill="#9CDCFE"/>
<path d="M74.6585 395.021H96.2072C96.8743 395.021 97.415 394.48 97.415 393.813C97.415 393.146 96.8743 392.605 96.2072 392.605H74.6585C73.9914 392.605 73.4507 393.146 73.4507 393.813C73.4507 394.48 73.9914 395.021 74.6585 395.021Z" fill="#DCDCAA"/>
<path opacity="0.66" d="M74.5892 340.525V99.1586C74.5892 72.649 96.0796 51.1586 122.589 51.1586H199.793" stroke="#569CD6" stroke-width="4" stroke-linecap="round" stroke-linejoin="round" stroke-dasharray="8 24"/>
<g opacity="0.66">
<path d="M212.577 41.1063L226.628 50.0303L218.102 34.4879C220.52 32.5591 223.511 31.4926 226.603 31.4571H226.823C227.798 31.469 228.772 31.3954 229.734 31.2369L234.508 34.2547L232.464 30.5505C235.835 29.3646 238.75 27.1493 240.797 24.2169L249.349 29.605L243.967 19.8003C248.948 13.8035 255.611 10.1252 263.064 10.1252C271.927 10.1252 279.885 15.4096 284.931 23.6341C286.441 26.0907 288.573 28.1036 291.112 29.4685C293.65 30.8334 296.504 31.5016 299.384 31.4053H299.811C309.593 31.4053 317.537 42.5051 317.537 56.2083C317.537 69.9115 309.593 81.0244 299.811 81.0244C297.659 81.0178 295.541 80.4889 293.639 79.4831C290.308 77.8588 286.663 76.9804 282.958 76.9088C279.253 76.8373 275.578 77.5742 272.186 79.0686C269.314 80.3453 266.207 81.005 263.064 81.005C259.922 81.005 256.814 80.3453 253.942 79.0686C250.577 77.606 246.936 76.8859 243.268 76.9575C239.6 77.029 235.99 77.8904 232.684 79.4831C230.796 80.462 228.703 80.9771 226.577 80.9855C216.782 80.9855 208.85 69.8856 208.85 56.1695C208.82 50.9161 210.101 45.7383 212.577 41.1063Z" fill="#03CED9" fill-opacity="0.33"/>
<path d="M260.156 78.3647C263.895 77.6509 267.76 78.0723 271.261 79.5753C273.359 80.5208 275.632 81.0095 277.93 81.0095C280.228 81.0095 282.501 80.5208 284.599 79.5753C287.08 78.4795 289.767 77.9401 292.475 77.9944C295.183 78.0487 297.847 78.6955 300.283 79.8899C301.674 80.6302 303.222 81.0195 304.795 81.0243C311.152 81.0243 316.44 74.5707 317.537 66.058C316.27 65.1218 315.191 63.9506 314.359 62.6072C310.632 56.554 304.899 52.6646 298.381 52.6646C291.864 52.6646 286.188 56.4777 282.461 62.4928C281.351 64.3013 279.795 65.7897 277.945 66.8136C276.096 67.8375 274.015 68.362 271.904 68.3363H271.734C266.72 68.3173 262.341 72.4068 260.156 78.3647Z" fill="#00D9E6" fill-opacity="0.17"/>
</g>
<path d="M518.417 57.1559H517.7V55.9009H518.237C518.332 55.9009 518.424 55.8631 518.491 55.7958C518.558 55.7286 518.596 55.6374 518.596 55.5423V49.0879C518.596 48.9928 518.558 48.9016 518.491 48.8344C518.424 48.7672 518.332 48.7294 518.237 48.7294H517.7V45.0639C517.7 44.0384 517.498 43.0229 517.105 42.0755C516.713 41.1281 516.138 40.2673 515.413 39.5422C514.688 38.817 513.827 38.2418 512.88 37.8494C511.933 37.457 510.918 37.255 509.892 37.255H509.096V36.3586C509.096 36.2635 509.058 36.1723 508.991 36.105C508.923 36.0378 508.832 36 508.737 36H502.284C502.189 36 502.098 36.0378 502.031 36.105C501.964 36.1723 501.926 36.2635 501.926 36.3586V37.255H385.336C384.311 37.255 383.296 37.457 382.349 37.8494C381.402 38.2418 380.541 38.817 379.816 39.5422C379.091 40.2673 378.516 41.1281 378.124 42.0755C377.731 43.0229 377.529 44.0384 377.529 45.0639V211.243C377.529 212.269 377.731 213.284 378.124 214.231C378.516 215.179 379.091 216.04 379.816 216.765C380.541 217.49 381.402 218.065 382.349 218.458C383.296 218.85 384.311 219.052 385.336 219.052H509.892C510.918 219.052 511.933 218.85 512.88 218.458C513.827 218.065 514.688 217.49 515.413 216.765C516.138 216.04 516.713 215.179 517.105 214.231C517.498 213.284 517.7 212.269 517.7 211.243V64.3273H518.417C518.512 64.3273 518.603 64.2895 518.67 64.2223C518.737 64.1551 518.775 64.0639 518.775 63.9688V57.5144C518.775 57.4193 518.737 57.3281 518.67 57.2609C518.603 57.1936 518.512 57.1559 518.417 57.1559Z" fill="#3F3D56"/>
<g clip-path="url(#clip0)">
<path d="M512.323 42.3628H383.982V212.689H512.323V42.3628Z" fill="#F2F2F2"/>
<path d="M384.116 137.743C377.672 144.599 383.51 166.323 385.838 171.973C391.057 184.708 382.355 183.226 382.112 194.785C381.869 206.345 405.47 212.753 427.28 206.27C453.581 198.452 443.708 194.401 479.38 195.665C515.051 196.929 518.788 165.284 516.532 161.55C514.62 158.385 518.779 144.706 513.146 142.459C510.491 141.4 510.516 132.389 501.387 134.295C491.405 136.379 482.889 121.64 472.646 129.038C462.404 136.436 461.876 119.331 447.248 124.226C432.62 129.121 415.779 123.558 407.369 127.991C391.256 136.485 392.104 129.245 384.116 137.743Z" fill="#0470DC"/>
<ellipse rx="0.929165" ry="0.929379" transform="matrix(1 0 0 -1 497.465 129.157)" fill="#FECB42"/>
<ellipse cx="467.685" cy="126.523" rx="2.75628" ry="2.75692" fill="#E8F5FF"/>
<path d="M426.061 149.913H429.495C430.599 149.913 431.495 149.017 431.495 147.913V144.478C431.495 143.373 430.599 142.478 429.495 142.478H426.061C424.957 142.478 424.061 143.373 424.061 144.478V147.913C424.061 149.017 424.957 149.913 426.061 149.913Z" fill="#9CDCFE"/>
<path d="M426.061 159.826H429.495C430.599 159.826 431.495 158.931 431.495 157.826V154.391C431.495 153.287 430.599 152.391 429.495 152.391H426.061C424.957 152.391 424.061 153.287 424.061 154.391V157.826C424.061 158.931 424.957 159.826 426.061 159.826Z" fill="#9CDCFE"/>
<path d="M426.061 169.74H429.495C430.599 169.74 431.495 168.844 431.495 167.74V164.305C431.495 163.2 430.599 162.305 429.495 162.305H426.061C424.957 162.305 424.061 163.2 424.061 164.305V167.74C424.061 168.844 424.957 169.74 426.061 169.74Z" fill="#9CDCFE"/>
<path d="M426.061 179.653H429.495C430.599 179.653 431.495 178.757 431.495 177.653V174.218C431.495 173.113 430.599 172.218 429.495 172.218H426.061C424.957 172.218 424.061 173.113 424.061 174.218V177.653C424.061 178.757 424.957 179.653 426.061 179.653Z" fill="#9CDCFE"/>
<path d="M426.061 189.566H429.495C430.599 189.566 431.495 188.671 431.495 187.566V184.131C431.495 183.027 430.599 182.131 429.495 182.131H426.061C424.957 182.131 424.061 183.027 424.061 184.131V187.566C424.061 188.671 424.957 189.566 426.061 189.566Z" fill="#9CDCFE"/>
<path d="M455.794 149.913H459.228C460.332 149.913 461.228 149.017 461.228 147.913V144.478C461.228 143.373 460.332 142.478 459.228 142.478H455.795C454.69 142.478 453.795 143.373 453.795 144.478V147.913C453.795 149.017 454.69 149.913 455.794 149.913Z" fill="#9CDCFE"/>
<path d="M455.794 159.826H459.228C460.332 159.826 461.228 158.931 461.228 157.826V154.391C461.228 153.287 460.332 152.391 459.228 152.391H455.795C454.69 152.391 453.795 153.287 453.795 154.391V157.826C453.795 158.931 454.69 159.826 455.794 159.826Z" fill="#9CDCFE"/>
<path d="M455.794 169.74H459.228C460.332 169.74 461.228 168.844 461.228 167.74V164.305C461.228 163.2 460.332 162.305 459.228 162.305H455.795C454.69 162.305 453.795 163.2 453.795 164.305V167.74C453.795 168.844 454.69 169.74 455.794 169.74Z" fill="#9CDCFE"/>
<path d="M455.794 179.653H459.228C460.332 179.653 461.228 178.757 461.228 177.653V174.218C461.228 173.113 460.332 172.218 459.228 172.218H455.795C454.69 172.218 453.795 173.113 453.795 174.218V177.653C453.795 178.757 454.69 179.653 455.794 179.653Z" fill="#9CDCFE"/>
<path d="M455.794 189.566H459.228C460.332 189.566 461.228 188.671 461.228 187.566V184.131C461.228 183.027 460.332 182.131 459.228 182.131H455.795C454.69 182.131 453.795 183.027 453.795 184.131V187.566C453.795 188.671 454.69 189.566 455.794 189.566Z" fill="#9CDCFE"/>
<path d="M435.972 149.913H439.406C440.51 149.913 441.406 149.017 441.406 147.913V144.478C441.406 143.373 440.51 142.478 439.406 142.478H435.972C434.868 142.478 433.972 143.373 433.972 144.478V147.913C433.972 149.017 434.868 149.913 435.972 149.913Z" fill="#9CDCFE"/>
<path d="M435.972 159.826H439.406C440.51 159.826 441.406 158.931 441.406 157.826V154.391C441.406 153.287 440.51 152.391 439.406 152.391H435.972C434.868 152.391 433.972 153.287 433.972 154.391V157.826C433.972 158.931 434.868 159.826 435.972 159.826Z" fill="#9CDCFE"/>
<path d="M435.972 169.74H439.406C440.51 169.74 441.406 168.844 441.406 167.74V164.305C441.406 163.2 440.51 162.305 439.406 162.305H435.972C434.868 162.305 433.972 163.2 433.972 164.305V167.74C433.972 168.844 434.868 169.74 435.972 169.74Z" fill="#9CDCFE"/>
<path d="M435.972 179.653H439.406C440.51 179.653 441.406 178.757 441.406 177.653V174.218C441.406 173.113 440.51 172.218 439.406 172.218H435.972C434.868 172.218 433.972 173.113 433.972 174.218V177.653C433.972 178.757 434.868 179.653 435.972 179.653Z" fill="#9CDCFE"/>
<path d="M435.972 189.566H439.406C440.51 189.566 441.406 188.671 441.406 187.566V184.131C441.406 183.027 440.51 182.131 439.406 182.131H435.972C434.868 182.131 433.972 183.027 433.972 184.131V187.566C433.972 188.671 434.868 189.566 435.972 189.566Z" fill="#9CDCFE"/>
<path d="M465.706 149.913H469.139C470.243 149.913 471.139 149.017 471.139 147.913V144.478C471.139 143.373 470.243 142.478 469.139 142.478H465.706C464.601 142.478 463.706 143.373 463.706 144.478V147.913C463.706 149.017 464.601 149.913 465.706 149.913Z" fill="#9CDCFE"/>
<path d="M465.706 159.826H469.139C470.243 159.826 471.139 158.931 471.139 157.826V154.391C471.139 153.287 470.243 152.391 469.139 152.391H465.706C464.601 152.391 463.706 153.287 463.706 154.391V157.826C463.706 158.931 464.601 159.826 465.706 159.826Z" fill="#9CDCFE"/>
<path d="M465.706 169.74H469.139C470.243 169.74 471.139 168.844 471.139 167.74V164.305C471.139 163.2 470.243 162.305 469.139 162.305H465.706C464.601 162.305 463.706 163.2 463.706 164.305V167.74C463.706 168.844 464.601 169.74 465.706 169.74Z" fill="#9CDCFE"/>
<path d="M465.706 179.653H469.139C470.243 179.653 471.139 178.757 471.139 177.653V174.218C471.139 173.113 470.243 172.218 469.139 172.218H465.706C464.601 172.218 463.706 173.113 463.706 174.218V177.653C463.706 178.757 464.601 179.653 465.706 179.653Z" fill="#9CDCFE"/>
<path d="M465.706 189.566H469.139C470.243 189.566 471.139 188.671 471.139 187.566V184.131C471.139 183.027 470.243 182.131 469.139 182.131H465.706C464.601 182.131 463.706 183.027 463.706 184.131V187.566C463.706 188.671 464.601 189.566 465.706 189.566Z" fill="#9CDCFE"/>
<path d="M445.884 149.913H449.317C450.421 149.913 451.317 149.017 451.317 147.913V144.478C451.317 143.373 450.421 142.478 449.317 142.478H445.884C444.779 142.478 443.884 143.373 443.884 144.478V147.913C443.884 149.017 444.779 149.913 445.884 149.913Z" fill="#9CDCFE"/>
<path d="M445.884 159.826H449.317C450.421 159.826 451.317 158.931 451.317 157.826V154.391C451.317 153.287 450.421 152.391 449.317 152.391H445.884C444.779 152.391 443.884 153.287 443.884 154.391V157.826C443.884 158.931 444.779 159.826 445.884 159.826Z" fill="#9CDCFE"/>
<path d="M445.884 169.74H449.317C450.421 169.74 451.317 168.844 451.317 167.74V164.305C451.317 163.2 450.421 162.305 449.317 162.305H445.884C444.779 162.305 443.884 163.2 443.884 164.305V167.74C443.884 168.844 444.779 169.74 445.884 169.74Z" fill="#9CDCFE"/>
<path d="M445.884 179.653H449.317C450.421 179.653 451.317 178.757 451.317 177.653V174.218C451.317 173.113 450.421 172.218 449.317 172.218H445.884C444.779 172.218 443.884 173.113 443.884 174.218V177.653C443.884 178.757 444.779 179.653 445.884 179.653Z" fill="#9CDCFE"/>
<path d="M445.884 189.566H449.317C450.421 189.566 451.317 188.671 451.317 187.566V184.131C451.317 183.027 450.421 182.131 449.317 182.131H445.884C444.779 182.131 443.884 183.027 443.884 184.131V187.566C443.884 188.671 444.779 189.566 445.884 189.566Z" fill="#9CDCFE"/>
<path d="M437.999 138.141H457.201C458.056 138.141 458.75 137.447 458.75 136.592C458.75 135.736 458.056 135.043 457.201 135.043H437.999C437.144 135.043 436.45 135.736 436.45 136.592C436.45 137.447 437.144 138.141 437.999 138.141Z" fill="#9CDCFE"/>
<path d="M438.217 65.2101H457.419C458.274 65.2101 458.968 64.5166 458.968 63.6611C458.968 62.8057 458.274 62.1122 457.419 62.1122H438.217C437.361 62.1122 436.668 62.8057 436.668 63.6611C436.668 64.5166 437.361 65.2101 438.217 65.2101Z" fill="#4F79A4"/>
<path d="M437.734 79.1651H485.684C486.272 79.1651 486.749 78.6879 486.749 78.0993C486.749 77.5107 486.272 77.0335 485.684 77.0335H437.734C437.145 77.0335 436.668 77.5107 436.668 78.0993C436.668 78.6879 437.145 79.1651 437.734 79.1651Z" fill="#4F79A4"/>
<path d="M437.734 96.218H485.684C486.272 96.218 486.749 95.7408 486.749 95.1522C486.749 94.5636 486.272 94.0864 485.684 94.0864H437.734C437.145 94.0864 436.668 94.5636 436.668 95.1522C436.668 95.7408 437.145 96.218 437.734 96.218Z" fill="#4F79A4"/>
<path d="M437.734 83.9612H483.02C483.608 83.9612 484.085 83.4841 484.085 82.8954C484.085 82.3068 483.608 81.8296 483.02 81.8296H437.734C437.145 81.8296 436.668 82.3068 436.668 82.8954C436.668 83.4841 437.145 83.9612 437.734 83.9612Z" fill="#4F79A4"/>
<path d="M437.734 101.014H483.02C483.608 101.014 484.085 100.537 484.085 99.9483C484.085 99.3597 483.608 98.8825 483.02 98.8825H437.734C437.145 98.8825 436.668 99.3597 436.668 99.9483C436.668 100.537 437.145 101.014 437.734 101.014Z" fill="#4F79A4"/>
<path d="M437.734 88.7574H484.085C484.674 88.7574 485.151 88.2802 485.151 87.6916C485.151 87.1029 484.674 86.6258 484.085 86.6258H437.734C437.145 86.6258 436.668 87.1029 436.668 87.6916C436.668 88.2802 437.145 88.7574 437.734 88.7574Z" fill="#4F79A4"/>
<path d="M437.734 105.81H484.085C484.674 105.81 485.151 105.333 485.151 104.744C485.151 104.156 484.674 103.679 484.085 103.679H437.734C437.145 103.679 436.668 104.156 436.668 104.744C436.668 105.333 437.145 105.81 437.734 105.81Z" fill="#4F79A4"/>
<rect x="400.439" y="77.5664" width="23.4423" height="23.4477" rx="8" fill="#4F79A4" fill-opacity="0.66"/>
<rect x="404.701" y="81.8296" width="23.4423" height="23.4477" rx="8" fill="#03CED9" fill-opacity="0.33"/>
<rect x="402.57" y="79.698" width="23.4423" height="23.4477" rx="8" fill="#CCCCCC"/>
</g>
<path d="M361.023 298.119H360.229V276.373C360.229 274.72 359.904 273.083 359.271 271.556C358.639 270.029 357.712 268.642 356.543 267.473C355.375 266.304 353.988 265.377 352.461 264.745C350.934 264.112 349.298 263.787 347.646 263.787H301.583C299.931 263.787 298.295 264.112 296.768 264.745C295.241 265.377 293.854 266.304 292.686 267.473C291.517 268.642 290.59 270.029 289.958 271.556C289.325 273.083 289 274.72 289 276.373V395.676C289 397.329 289.325 398.965 289.958 400.492C290.59 402.019 291.517 403.407 292.686 404.576C293.854 405.744 295.241 406.672 296.768 407.304C298.295 407.937 299.931 408.262 301.583 408.262H347.646C349.298 408.262 350.934 407.937 352.461 407.304C353.988 406.672 355.375 405.744 356.543 404.576C357.712 403.407 358.639 402.019 359.271 400.492C359.904 398.965 360.229 397.329 360.229 395.676V313.599H361.023V298.119Z" fill="#3F3D56"/>
<g clip-path="url(#clip1)">
<path d="M357.549 277.113V396.242C357.55 398.734 356.56 401.125 354.798 402.888C353.036 404.652 350.646 405.642 348.153 405.643H301.869C299.377 405.642 296.986 404.652 295.224 402.888C293.462 401.125 292.473 398.734 292.473 396.242V277.113C292.473 274.62 293.463 272.23 295.225 270.468C296.987 268.705 299.377 267.715 301.869 267.715H307.484C307.208 268.393 307.103 269.128 307.177 269.857C307.252 270.585 307.505 271.284 307.913 271.892C308.322 272.499 308.873 272.997 309.519 273.341C310.165 273.685 310.886 273.865 311.618 273.865H338.007C338.739 273.866 339.46 273.685 340.106 273.341C340.752 272.997 341.304 272.499 341.712 271.892C342.12 271.284 342.373 270.585 342.448 269.857C342.523 269.128 342.417 268.393 342.141 267.715H348.153C350.645 267.715 353.035 268.705 354.797 270.468C356.559 272.23 357.549 274.62 357.549 277.113Z" fill="#F2F2F2"/>
<path d="M261.489 288.792C255.044 295.648 260.883 317.372 263.21 323.021C268.429 335.756 259.728 334.275 259.484 345.834C259.241 357.394 282.843 363.802 304.652 357.319C330.953 349.501 321.08 345.45 356.752 346.714C392.424 347.978 396.16 316.333 393.904 312.599C391.992 309.434 396.151 295.755 390.518 293.508C387.864 292.449 387.888 283.438 378.759 285.344C368.777 287.428 360.261 272.689 350.019 280.087C339.776 287.485 339.248 270.38 324.62 275.275C309.992 280.17 293.151 274.607 284.742 279.039C268.628 287.534 269.476 280.294 261.489 288.792Z" fill="#0470DC"/>
<ellipse cx="345.058" cy="277.571" rx="2.75628" ry="2.75692" fill="#E8F5FF"/>
<path d="M303.434 300.962H306.867C307.972 300.962 308.867 300.066 308.867 298.962V295.527C308.867 294.422 307.972 293.527 306.867 293.527H303.434C302.33 293.527 301.434 294.422 301.434 295.527V298.962C301.434 300.066 302.33 300.962 303.434 300.962Z" fill="#9CDCFE"/>
<path d="M303.434 310.875H306.867C307.972 310.875 308.867 309.979 308.867 308.875V305.44C308.867 304.335 307.972 303.44 306.867 303.44H303.434C302.33 303.44 301.434 304.335 301.434 305.44V308.875C301.434 309.979 302.33 310.875 303.434 310.875Z" fill="#9CDCFE"/>
<path d="M303.434 320.788H306.867C307.972 320.788 308.867 319.893 308.867 318.788V315.353C308.867 314.249 307.972 313.353 306.867 313.353H303.434C302.33 313.353 301.434 314.249 301.434 315.353V318.788C301.434 319.893 302.33 320.788 303.434 320.788Z" fill="#9CDCFE"/>
<path d="M303.434 330.702H306.867C307.972 330.702 308.867 329.806 308.867 328.702V325.267C308.867 324.162 307.972 323.267 306.867 323.267H303.434C302.33 323.267 301.434 324.162 301.434 325.267V328.702C301.434 329.806 302.33 330.702 303.434 330.702Z" fill="#9CDCFE"/>
<path d="M303.434 340.615H306.867C307.972 340.615 308.867 339.72 308.867 338.615V335.18C308.867 334.075 307.972 333.18 306.867 333.18H303.434C302.33 333.18 301.434 334.075 301.434 335.18V338.615C301.434 339.72 302.33 340.615 303.434 340.615Z" fill="#9CDCFE"/>
<path d="M333.167 300.962H336.6C337.705 300.962 338.6 300.066 338.6 298.962V295.527C338.6 294.422 337.705 293.527 336.6 293.527H333.167C332.063 293.527 331.167 294.422 331.167 295.527V298.962C331.167 300.066 332.063 300.962 333.167 300.962Z" fill="#9CDCFE"/>
<path d="M333.167 310.875H336.6C337.705 310.875 338.6 309.979 338.6 308.875V305.44C338.6 304.335 337.705 303.44 336.6 303.44H333.167C332.063 303.44 331.167 304.335 331.167 305.44V308.875C331.167 309.979 332.063 310.875 333.167 310.875Z" fill="#9CDCFE"/>
<path d="M333.167 320.788H336.6C337.705 320.788 338.6 319.893 338.6 318.788V315.353C338.6 314.249 337.705 313.353 336.6 313.353H333.167C332.063 313.353 331.167 314.249 331.167 315.353V318.788C331.167 319.893 332.063 320.788 333.167 320.788Z" fill="#9CDCFE"/>
<path d="M333.167 330.702H336.6C337.705 330.702 338.6 329.806 338.6 328.702V325.267C338.6 324.162 337.705 323.267 336.6 323.267H333.167C332.063 323.267 331.167 324.162 331.167 325.267V328.702C331.167 329.806 332.063 330.702 333.167 330.702Z" fill="#9CDCFE"/>
<path d="M333.167 340.615H336.6C337.705 340.615 338.6 339.72 338.6 338.615V335.18C338.6 334.075 337.705 333.18 336.6 333.18H333.167C332.063 333.18 331.167 334.075 331.167 335.18V338.615C331.167 339.72 332.063 340.615 333.167 340.615Z" fill="#9CDCFE"/>
<path d="M313.345 300.962H316.778C317.883 300.962 318.778 300.066 318.778 298.962V295.527C318.778 294.422 317.883 293.527 316.778 293.527H313.345C312.24 293.527 311.345 294.422 311.345 295.527V298.962C311.345 300.066 312.24 300.962 313.345 300.962Z" fill="#9CDCFE"/>
<path d="M313.345 310.875H316.778C317.883 310.875 318.778 309.979 318.778 308.875V305.44C318.778 304.335 317.883 303.44 316.778 303.44H313.345C312.24 303.44 311.345 304.335 311.345 305.44V308.875C311.345 309.979 312.24 310.875 313.345 310.875Z" fill="#9CDCFE"/>
<path d="M313.345 320.788H316.778C317.883 320.788 318.778 319.893 318.778 318.788V315.353C318.778 314.249 317.883 313.353 316.778 313.353H313.345C312.24 313.353 311.345 314.249 311.345 315.353V318.788C311.345 319.893 312.24 320.788 313.345 320.788Z" fill="#9CDCFE"/>
<path d="M313.345 330.702H316.778C317.883 330.702 318.778 329.806 318.778 328.702V325.267C318.778 324.162 317.883 323.267 316.778 323.267H313.345C312.24 323.267 311.345 324.162 311.345 325.267V328.702C311.345 329.806 312.24 330.702 313.345 330.702Z" fill="#9CDCFE"/>
<path d="M313.345 340.615H316.778C317.883 340.615 318.778 339.72 318.778 338.615V335.18C318.778 334.075 317.883 333.18 316.778 333.18H313.345C312.24 333.18 311.345 334.075 311.345 335.18V338.615C311.345 339.72 312.24 340.615 313.345 340.615Z" fill="#9CDCFE"/>
<path d="M343.078 300.962H346.512C347.616 300.962 348.512 300.066 348.512 298.962V295.527C348.512 294.422 347.616 293.527 346.512 293.527H343.078C341.974 293.527 341.078 294.422 341.078 295.527V298.962C341.078 300.066 341.974 300.962 343.078 300.962Z" fill="#9CDCFE"/>
<path d="M343.078 310.875H346.512C347.616 310.875 348.512 309.979 348.512 308.875V305.44C348.512 304.335 347.616 303.44 346.512 303.44H343.078C341.974 303.44 341.078 304.335 341.078 305.44V308.875C341.078 309.979 341.974 310.875 343.078 310.875Z" fill="#9CDCFE"/>
<path d="M343.078 320.788H346.512C347.616 320.788 348.512 319.893 348.512 318.788V315.353C348.512 314.249 347.616 313.353 346.512 313.353H343.078C341.974 313.353 341.078 314.249 341.078 315.353V318.788C341.078 319.893 341.974 320.788 343.078 320.788Z" fill="#9CDCFE"/>
<path d="M343.078 330.702H346.512C347.616 330.702 348.512 329.806 348.512 328.702V325.267C348.512 324.162 347.616 323.267 346.512 323.267H343.078C341.974 323.267 341.078 324.162 341.078 325.267V328.702C341.078 329.806 341.974 330.702 343.078 330.702Z" fill="#9CDCFE"/>
<path d="M343.078 340.615H346.512C347.616 340.615 348.512 339.72 348.512 338.615V335.18C348.512 334.075 347.616 333.18 346.512 333.18H343.078C341.974 333.18 341.078 334.075 341.078 335.18V338.615C341.078 339.72 341.974 340.615 343.078 340.615Z" fill="#9CDCFE"/>
<path d="M323.256 300.962H326.69C327.794 300.962 328.69 300.066 328.69 298.962V295.527C328.69 294.422 327.794 293.527 326.69 293.527H323.256C322.152 293.527 321.256 294.422 321.256 295.527V298.962C321.256 300.066 322.152 300.962 323.256 300.962Z" fill="#9CDCFE"/>
<path d="M323.256 310.875H326.69C327.794 310.875 328.69 309.979 328.69 308.875V305.44C328.69 304.335 327.794 303.44 326.69 303.44H323.256C322.152 303.44 321.256 304.335 321.256 305.44V308.875C321.256 309.979 322.152 310.875 323.256 310.875Z" fill="#9CDCFE"/>
<path d="M323.256 320.788H326.69C327.794 320.788 328.69 319.893 328.69 318.788V315.353C328.69 314.249 327.794 313.353 326.69 313.353H323.256C322.152 313.353 321.256 314.249 321.256 315.353V318.788C321.256 319.893 322.152 320.788 323.256 320.788Z" fill="#9CDCFE"/>
<path d="M323.256 330.702H326.69C327.794 330.702 328.69 329.806 328.69 328.702V325.267C328.69 324.162 327.794 323.267 326.69 323.267H323.256C322.152 323.267 321.256 324.162 321.256 325.267V328.702C321.256 329.806 322.152 330.702 323.256 330.702Z" fill="#9CDCFE"/>
<path d="M323.256 340.615H326.69C327.794 340.615 328.69 339.72 328.69 338.615V335.18C328.69 334.075 327.794 333.18 326.69 333.18H323.256C322.152 333.18 321.256 334.075 321.256 335.18V338.615C321.256 339.72 322.152 340.615 323.256 340.615Z" fill="#9CDCFE"/>
<path d="M315.372 289.19H334.573C335.429 289.19 336.122 288.496 336.122 287.641C336.122 286.785 335.429 286.092 334.573 286.092H315.372C314.516 286.092 313.823 286.785 313.823 287.641C313.823 288.496 314.516 289.19 315.372 289.19Z" fill="#9CDCFE"/>
<path d="M315.589 369.202H334.791C335.647 369.202 336.34 368.508 336.34 367.653C336.34 366.797 335.647 366.104 334.791 366.104H315.589C314.734 366.104 314.04 366.797 314.04 367.653C314.04 368.508 314.734 369.202 315.589 369.202Z" fill="#4F79A4"/>
<path d="M304.184 376.762H316.971C317.412 376.762 317.77 376.404 317.77 375.963C317.77 375.521 317.412 375.163 316.971 375.163H304.184C303.743 375.163 303.385 375.521 303.385 375.963C303.385 376.404 303.743 376.762 304.184 376.762Z" fill="#4F79A4"/>
<path d="M329.758 392.216H342.544C342.986 392.216 343.344 391.858 343.344 391.417C343.344 390.975 342.986 390.618 342.544 390.618H329.758C329.316 390.618 328.958 390.975 328.958 391.417C328.958 391.858 329.316 392.216 329.758 392.216Z" fill="#4F79A4"/>
<path d="M303.918 378.361H311.909C312.204 378.361 312.442 378.123 312.442 377.828C312.442 377.534 312.204 377.295 311.909 377.295H303.918C303.624 377.295 303.385 377.534 303.385 377.828C303.385 378.123 303.624 378.361 303.918 378.361Z" fill="#4F79A4" fill-opacity="0.66"/>
<path d="M334.819 393.815H342.811C343.105 393.815 343.344 393.577 343.344 393.283C343.344 392.988 343.105 392.75 342.811 392.75H334.819C334.525 392.75 334.286 392.988 334.286 393.283C334.286 393.577 334.525 393.815 334.819 393.815Z" fill="#4F79A4" fill-opacity="0.66"/>
<path d="M303.885 379.959H322.598C322.811 379.959 322.938 379.721 322.819 379.544C322.769 379.471 322.686 379.427 322.598 379.427H303.885C303.672 379.427 303.545 379.665 303.664 379.842C303.714 379.915 303.797 379.959 303.885 379.959Z" fill="#A5ADB1"/>
<path d="M324.131 395.414H342.843C343.056 395.414 343.183 395.175 343.064 394.998C343.015 394.925 342.932 394.881 342.843 394.881H324.131C323.918 394.881 323.791 395.119 323.91 395.296C323.959 395.369 324.042 395.414 324.131 395.414Z" fill="#A5ADB1"/>
<path d="M304.396 381.025H321.554C321.763 381.025 321.891 380.796 321.781 380.619C321.732 380.54 321.647 380.492 321.554 380.492H304.396C304.187 380.492 304.059 380.721 304.169 380.899C304.218 380.977 304.303 381.025 304.396 381.025Z" fill="#A5ADB1"/>
<path d="M325.707 396.479H342.866C343.074 396.479 343.202 396.25 343.092 396.073C343.044 395.994 342.958 395.947 342.866 395.947H325.707C325.498 395.947 325.371 396.176 325.48 396.353C325.529 396.432 325.615 396.479 325.707 396.479Z" fill="#A5ADB1"/>
<path d="M304.403 382.091H322.08C322.29 382.091 322.417 381.859 322.305 381.682C322.256 381.605 322.171 381.558 322.08 381.558H304.403C304.193 381.558 304.065 381.79 304.178 381.968C304.227 382.045 304.312 382.091 304.403 382.091Z" fill="#A5ADB1"/>
<path d="M324.656 397.545H342.851C343.062 397.545 343.19 397.31 343.074 397.133C343.024 397.058 342.941 397.012 342.851 397.012H324.656C324.444 397.012 324.317 397.247 324.433 397.425C324.482 397.5 324.566 397.545 324.656 397.545Z" fill="#A5ADB1"/>
<path d="M304.388 383.157H321.029C321.236 383.157 321.364 382.931 321.257 382.753C321.209 382.673 321.123 382.624 321.029 382.624H304.388C304.181 382.624 304.053 382.85 304.16 383.027C304.208 383.108 304.295 383.157 304.388 383.157Z" fill="#A5ADB1"/>
<path d="M326.232 398.611H342.873C343.08 398.611 343.208 398.385 343.101 398.208C343.053 398.127 342.967 398.078 342.873 398.078H326.232C326.025 398.078 325.897 398.304 326.004 398.482C326.052 398.562 326.139 398.611 326.232 398.611Z" fill="#A5ADB1"/>
<ellipse cx="299.123" cy="376.762" rx="2.13112" ry="2.13162" fill="#C4C4C4"/>
<ellipse cx="347.606" cy="392.749" rx="2.13112" ry="2.1316" fill="#C4C4C4"/>
</g>
<path d="M323.897 270.182C324.633 270.182 325.229 269.585 325.229 268.849C325.229 268.113 324.633 267.517 323.897 267.517C323.162 267.517 322.565 268.113 322.565 268.849C322.565 269.585 323.162 270.182 323.897 270.182Z" fill="#6C63FF"/>
<path d="M212.119 237.899H174.2L175.485 221.185H210.834L212.119 237.899Z" fill="#F2F2F2"/>
<path d="M214.69 235.97H172.272V239.827H214.69V235.97Z" fill="#F2F2F2"/>
<path d="M265.785 113.508H120.856C119.833 113.508 118.853 113.915 118.129 114.638C117.406 115.361 117 116.342 117 117.365V205.757H269.641V117.365C269.641 116.342 269.235 115.361 268.511 114.638C267.788 113.915 266.807 113.508 265.785 113.508Z" fill="#3F3D56"/>
<path d="M117 205.757V220.221C117 220.727 117.1 221.229 117.294 221.697C117.487 222.165 117.771 222.59 118.129 222.948C118.488 223.306 118.913 223.59 119.38 223.784C119.848 223.978 120.35 224.078 120.856 224.078H265.785C266.291 224.078 266.792 223.978 267.26 223.784C267.728 223.59 268.153 223.306 268.511 222.948C268.869 222.59 269.153 222.165 269.347 221.697C269.541 221.229 269.641 220.727 269.641 220.221V205.757H117Z" fill="#F2F2F2"/>
<path d="M262.25 121.544H124.712V198.685H262.25V121.544Z" fill="#E6E6E6"/>
<path d="M193.481 218.613C195.611 218.613 197.337 216.887 197.337 214.756C197.337 212.626 195.611 210.899 193.481 210.899C191.351 210.899 189.625 212.626 189.625 214.756C189.625 216.887 191.351 218.613 193.481 218.613Z" fill="#3F3D56"/>
<path d="M129.001 124.802C129.405 124.802 129.733 124.474 129.733 124.07C129.733 123.666 129.405 123.338 129.001 123.338C128.597 123.338 128.269 123.666 128.269 124.07C128.269 124.474 128.597 124.802 129.001 124.802Z" fill="white"/>
<path d="M131.779 124.802C132.183 124.802 132.51 124.474 132.51 124.07C132.51 123.666 132.183 123.338 131.779 123.338C131.375 123.338 131.047 123.666 131.047 124.07C131.047 124.474 131.375 124.802 131.779 124.802Z" fill="white"/>
<path d="M134.556 124.802C134.961 124.802 135.288 124.474 135.288 124.07C135.288 123.666 134.961 123.338 134.556 123.338C134.152 123.338 133.825 123.666 133.825 124.07C133.825 124.474 134.152 124.802 134.556 124.802Z" fill="white"/>
<g clip-path="url(#clip2)">
<path d="M258.286 126.557H128.269V191.344H258.286V126.557Z" fill="white"/>
<path d="M137.519 141.943C131.977 147.84 136.998 166.525 139 171.384C143.489 182.337 136.005 181.062 135.796 191.005C135.586 200.947 155.886 206.459 174.644 200.883C197.266 194.159 188.774 190.674 219.455 191.761C250.137 192.849 253.35 165.631 251.41 162.419C249.765 159.697 253.343 147.932 248.498 145.999C246.214 145.088 246.235 137.338 238.384 138.977C229.798 140.77 222.474 128.093 213.664 134.456C204.854 140.819 204.401 126.107 191.819 130.317C179.237 134.527 164.752 129.742 157.52 133.555C143.66 140.861 144.39 134.634 137.519 141.943Z" fill="#0470DC"/>
<ellipse rx="0.799179" ry="0.799353" transform="matrix(1 0 0 -1 235.011 134.558)" fill="#FECB42"/>
<ellipse cx="209.397" cy="132.292" rx="2.37068" ry="2.37122" fill="#E8F5FF"/>
<path d="M173.876 152.41H176.27C177.374 152.41 178.27 151.515 178.27 150.41V148.015C178.27 146.911 177.374 146.015 176.27 146.015H173.876C172.772 146.015 171.876 146.911 171.876 148.015V150.41C171.876 151.515 172.772 152.41 173.876 152.41Z" fill="#9CDCFE"/>
<path d="M173.876 160.937H176.27C177.374 160.937 178.27 160.041 178.27 158.937V156.542C178.27 155.437 177.374 154.542 176.27 154.542H173.876C172.772 154.542 171.876 155.437 171.876 156.542V158.937C171.876 160.041 172.772 160.937 173.876 160.937Z" fill="#9CDCFE"/>
<path d="M173.876 169.463H176.27C177.374 169.463 178.27 168.568 178.27 167.463V165.068C178.27 163.964 177.374 163.068 176.27 163.068H173.876C172.772 163.068 171.876 163.964 171.876 165.068V167.463C171.876 168.568 172.772 169.463 173.876 169.463Z" fill="#9CDCFE"/>
<path d="M173.876 177.989H176.27C177.374 177.989 178.27 177.094 178.27 175.989V173.595C178.27 172.49 177.374 171.595 176.27 171.595H173.876C172.772 171.595 171.876 172.49 171.876 173.595V175.989C171.876 177.094 172.772 177.989 173.876 177.989Z" fill="#9CDCFE"/>
<path d="M173.876 186.516H176.27C177.374 186.516 178.27 185.62 178.27 184.516V182.121C178.27 181.016 177.374 180.121 176.27 180.121H173.876C172.772 180.121 171.876 181.016 171.876 182.121V184.516C171.876 185.62 172.772 186.516 173.876 186.516Z" fill="#9CDCFE"/>
<path d="M199.45 152.41H201.843C202.948 152.41 203.843 151.515 203.843 150.41V148.015C203.843 146.911 202.948 146.015 201.843 146.015H199.45C198.345 146.015 197.45 146.911 197.45 148.015V150.41C197.45 151.515 198.345 152.41 199.45 152.41Z" fill="#9CDCFE"/>
<path d="M199.45 160.937H201.843C202.948 160.937 203.843 160.041 203.843 158.937V156.542C203.843 155.437 202.948 154.542 201.843 154.542H199.45C198.345 154.542 197.45 155.437 197.45 156.542V158.937C197.45 160.041 198.345 160.937 199.45 160.937Z" fill="#9CDCFE"/>
<path d="M199.45 169.463H201.843C202.948 169.463 203.843 168.568 203.843 167.463V165.068C203.843 163.964 202.948 163.068 201.843 163.068H199.45C198.345 163.068 197.45 163.964 197.45 165.068V167.463C197.45 168.568 198.345 169.463 199.45 169.463Z" fill="#9CDCFE"/>
<path d="M199.45 177.989H201.843C202.948 177.989 203.843 177.094 203.843 175.989V173.595C203.843 172.49 202.948 171.595 201.843 171.595H199.45C198.345 171.595 197.45 172.49 197.45 173.595V175.989C197.45 177.094 198.345 177.989 199.45 177.989Z" fill="#9CDCFE"/>
<path d="M199.45 186.516H201.843C202.948 186.516 203.843 185.62 203.843 184.516V182.121C203.843 181.016 202.948 180.121 201.843 180.121H199.45C198.345 180.121 197.45 181.016 197.45 182.121V184.516C197.45 185.62 198.345 186.516 199.45 186.516Z" fill="#9CDCFE"/>
<path d="M182.401 152.41H184.794C185.899 152.41 186.794 151.515 186.794 150.41V148.015C186.794 146.911 185.899 146.015 184.794 146.015H182.401C181.296 146.015 180.401 146.911 180.401 148.015V150.41C180.401 151.515 181.296 152.41 182.401 152.41Z" fill="#9CDCFE"/>
<path d="M182.401 160.937H184.794C185.899 160.937 186.794 160.041 186.794 158.937V156.542C186.794 155.437 185.899 154.542 184.794 154.542H182.401C181.296 154.542 180.401 155.437 180.401 156.542V158.937C180.401 160.041 181.296 160.937 182.401 160.937Z" fill="#9CDCFE"/>
<path d="M182.401 169.463H184.794C185.899 169.463 186.794 168.568 186.794 167.463V165.068C186.794 163.964 185.899 163.068 184.794 163.068H182.401C181.296 163.068 180.401 163.964 180.401 165.068V167.463C180.401 168.568 181.296 169.463 182.401 169.463Z" fill="#9CDCFE"/>
<path d="M182.401 177.989H184.794C185.899 177.989 186.794 177.094 186.794 175.989V173.595C186.794 172.49 185.899 171.595 184.794 171.595H182.401C181.296 171.595 180.401 172.49 180.401 173.595V175.989C180.401 177.094 181.296 177.989 182.401 177.989Z" fill="#9CDCFE"/>
<path d="M182.401 186.516H184.794C185.899 186.516 186.794 185.62 186.794 184.516V182.121C186.794 181.016 185.899 180.121 184.794 180.121H182.401C181.296 180.121 180.401 181.016 180.401 182.121V184.516C180.401 185.62 181.296 186.516 182.401 186.516Z" fill="#9CDCFE"/>
<path d="M207.974 152.41H210.368C211.472 152.41 212.368 151.515 212.368 150.41V148.015C212.368 146.911 211.472 146.015 210.368 146.015H207.974C206.87 146.015 205.974 146.911 205.974 148.015V150.41C205.974 151.515 206.87 152.41 207.974 152.41Z" fill="#9CDCFE"/>
<path d="M207.974 160.937H210.368C211.472 160.937 212.368 160.041 212.368 158.937V156.542C212.368 155.437 211.472 154.542 210.368 154.542H207.974C206.87 154.542 205.974 155.437 205.974 156.542V158.937C205.974 160.041 206.87 160.937 207.974 160.937Z" fill="#9CDCFE"/>
<path d="M207.974 169.463H210.368C211.472 169.463 212.368 168.568 212.368 167.463V165.068C212.368 163.964 211.472 163.068 210.368 163.068H207.974C206.87 163.068 205.974 163.964 205.974 165.068V167.463C205.974 168.568 206.87 169.463 207.974 169.463Z" fill="#9CDCFE"/>
<path d="M207.974 177.989H210.368C211.472 177.989 212.368 177.094 212.368 175.989V173.595C212.368 172.49 211.472 171.595 210.368 171.595H207.974C206.87 171.595 205.974 172.49 205.974 173.595V175.989C205.974 177.094 206.87 177.989 207.974 177.989Z" fill="#9CDCFE"/>
<path d="M207.974 186.516H210.368C211.472 186.516 212.368 185.62 212.368 184.516V182.121C212.368 181.016 211.472 180.121 210.368 180.121H207.974C206.87 180.121 205.974 181.016 205.974 182.121V184.516C205.974 185.62 206.87 186.516 207.974 186.516Z" fill="#9CDCFE"/>
<path d="M190.925 152.41H193.319C194.423 152.41 195.319 151.515 195.319 150.41V148.015C195.319 146.911 194.423 146.015 193.319 146.015H190.925C189.821 146.015 188.925 146.911 188.925 148.015V150.41C188.925 151.515 189.821 152.41 190.925 152.41Z" fill="#9CDCFE"/>
<path d="M190.925 160.937H193.319C194.423 160.937 195.319 160.041 195.319 158.937V156.542C195.319 155.437 194.423 154.542 193.319 154.542H190.925C189.821 154.542 188.925 155.437 188.925 156.542V158.937C188.925 160.041 189.821 160.937 190.925 160.937Z" fill="#9CDCFE"/>
<path d="M190.925 169.463H193.319C194.423 169.463 195.319 168.568 195.319 167.463V165.068C195.319 163.964 194.423 163.068 193.319 163.068H190.925C189.821 163.068 188.925 163.964 188.925 165.068V167.463C188.925 168.568 189.821 169.463 190.925 169.463Z" fill="#9CDCFE"/>
<path d="M190.925 177.989H193.319C194.423 177.989 195.319 177.094 195.319 175.989V173.595C195.319 172.49 194.423 171.595 193.319 171.595H190.925C189.821 171.595 188.925 172.49 188.925 173.595V175.989C188.925 177.094 189.821 177.989 190.925 177.989Z" fill="#9CDCFE"/>
<path d="M190.925 186.516H193.319C194.423 186.516 195.319 185.62 195.319 184.516V182.121C195.319 181.016 194.423 180.121 193.319 180.121H190.925C189.821 180.121 188.925 181.016 188.925 182.121V184.516C188.925 185.62 189.821 186.516 190.925 186.516Z" fill="#9CDCFE"/>
<path d="M183.864 142.285H200.38C201.116 142.285 201.712 141.688 201.712 140.953C201.712 140.217 201.116 139.62 200.38 139.62H183.864C183.128 139.62 182.532 140.217 182.532 140.953C182.532 141.688 183.128 142.285 183.864 142.285Z" fill="#9CDCFE"/>
</g>
<defs>
<clipPath id="clip0">
<rect x="383.982" y="42.3628" width="128.341" height="170.326" fill="white"/>
</clipPath>
<clipPath id="clip1">
<rect x="292.473" y="267.715" width="65.0761" height="137.928" fill="white"/>
</clipPath>
<clipPath id="clip2">
<rect x="128.269" y="126.557" width="130.017" height="64.7862" fill="white"/>
</clipPath>
</defs>
</svg>
