<svg width="512" height="512" viewBox="0 0 512 512" fill="none"
  xmlns="http://www.w3.org/2000/svg">
  <g clip-path="url(#clip0)">
    <path d="M512 162.091C511.061 156.459 510.293 152.064 504.32 148.416C260.075 3.54131 263.531 -7.25336 247.68 2.32531C62.5707 117.397 11.0507 143.061 3.64808 152.021C-3.07192 158.912 8.00501e-05 169.472 8.00501e-05 329.045C-0.44792 347.2 165.184 445.568 245.739 508.331C252.843 513.387 261.781 512.576 267.136 507.712C506.581 337.984 512.405 344.811 512 329.045C512 329.045 511.744 159.936 512 162.091ZM480 300.565L397.312 250.24L480 192.704V300.565ZM367.424 232.043L272 173.973V44.48L466.688 162.987L367.424 232.043ZM256 309.547L173.312 252.011L256 201.685L338.688 252.011L256 309.547ZM240 44.4587V174.037C202.901 197.056 171.541 216.277 145.045 232.363L45.3121 162.987L240 44.4587ZM115.051 250.496C75.0721 274.539 48.9601 289.813 32.0001 299.989V192.704L115.051 250.496ZM143.424 270.208L240 337.387V465.365L45.3121 329.92L143.424 270.208ZM272 465.387V337.408L368.576 270.229L466.688 329.941L272 465.387Z" fill="black"/>
  </g>
  <defs>
    <clipPath id="clip0">
      <rect width="512" height="512" fill="white"/>
    </clipPath>
  </defs>
</svg>
