<svg width="24" height="24" viewBox="0 0 24 24" fill="none"
  xmlns="http://www.w3.org/2000/svg">
  <path d="M0.18401 10.462C-0.59499 15.368 1.58501 21.285 8.30701 23.468C8.42701 23.49 8.53801 23.5 8.64201 23.5C9.42401 23.5 9.96201 22.918 9.96201 22.2C9.86501 21.677 10.345 19.558 9.04201 19.843C6.52301 20.379 6.22101 18.972 5.83701 18.236C6.92301 19.63 8.55501 19.595 9.78601 19.055C10.469 18.755 10.112 17.991 10.436 17.712C10.932 17.286 10.68 16.469 10.029 16.398C7.71501 16.143 5.57201 15.397 5.57201 11.696C5.57201 9.528 7.07701 9.33399 6.66201 8.42699C6.64701 8.39399 6.32901 7.67299 6.61701 6.57799C8.03601 6.83999 8.68901 7.858 9.37001 7.67499C11.057 7.21499 12.914 7.21499 14.6 7.67499C15.304 7.864 15.807 6.87399 17.338 6.57199C17.779 8.226 16.865 8.62999 17.441 9.24899C18.073 9.929 18.394 10.752 18.394 11.696C18.394 17.26 13.677 15.653 13.293 16.916C13.205 17.204 13.298 17.515 13.528 17.708C14.138 18.221 14.058 19.538 13.993 20.597C13.926 21.695 13.868 22.642 14.475 23.176C14.689 23.366 15.07 23.569 15.759 23.429C22.393 21.298 24.589 15.407 23.822 10.512C21.726 -2.856 2.29601 -2.84 0.18401 10.462ZM8.45401 21.44L8.45801 21.945C7.93501 21.764 7.44301 21.555 6.98301 21.322C7.40801 21.431 7.89601 21.478 8.45401 21.44ZM8.82401 17.74C8.81901 17.766 8.81401 17.793 8.80901 17.82C7.95601 18.072 7.30001 17.821 6.85201 17.068C6.85201 17.067 6.85201 17.067 6.85101 17.066C7.53101 17.43 8.23201 17.626 8.82401 17.74ZM12 1.99999C23.833 1.99999 26.502 18.267 15.469 21.941C15.431 21.644 15.466 21.084 15.49 20.689C15.548 19.738 15.616 18.63 15.277 17.704C20.365 16.645 20.79 11.058 18.831 8.569C19.074 7.617 18.976 5.37999 18.102 5.10599C17.896 5.04099 16.797 4.80199 14.665 6.14299C12.924 5.72699 11.045 5.726 9.30401 6.14299C8.24001 5.476 5.84201 4.391 5.38201 5.54299C4.84801 6.88499 4.97501 7.97 5.13401 8.573C3.39501 10.777 3.91601 14.467 5.66801 16.199C4.67501 15.724 3.30701 15.562 3.01201 16.513C2.68901 17.55 3.92401 17.424 4.69101 19.317C4.76401 19.553 4.89901 19.83 5.10601 20.105C-1.70499 14.54 1.58101 1.99999 12 1.99999Z" fill="white"/>
</svg>
