<svg width="24" height="24" viewBox="0 0 24 24" fill="none"
  xmlns="http://www.w3.org/2000/svg">
  <g clip-path="url(#clip0)">
    <path d="M18.59 24C18.693 24 23.352 23.999 23.25 23.999C23.664 23.999 24 23.663 24 23.249C23.65 15.392 25.842 7.101 17.662 7.101C16.089 7.101 14.836 7.638 13.933 8.348C13.933 6.887 12.354 7.695 8.709 7.478C8.295 7.478 7.959 7.814 7.959 8.228C8.261 22.394 7.285 23.999 8.709 23.999H13.369C14.722 23.999 13.861 22.091 14.119 15.811C14.119 13.217 14.869 12.709 16.165 12.709C17.599 12.709 17.84 13.705 17.84 15.937C18.097 22.104 17.242 24 18.59 24ZM16.165 11.209C11.674 11.209 12.619 16.147 12.619 22.499H9.459V8.978H12.433V10.276C12.433 10.996 13.53 11.35 13.912 10.626C14.404 9.692 15.682 8.601 17.662 8.601C21.189 8.601 22.5 10.334 22.5 14.997V22.5H19.34C19.34 15.356 20.096 11.209 16.165 11.209Z" fill="#F2F3F3"/>
    <path d="M1.12199 7.479C-0.298008 7.479 0.673992 9.064 0.371992 23.25C0.371992 23.664 0.707992 24 1.12199 24H5.78699C7.20699 24 6.23499 22.415 6.53699 8.229C6.53699 6.934 4.65599 7.698 1.12199 7.479ZM5.03699 22.5H1.87199V8.979H5.03699V22.5Z" fill="#F2F3F3"/>
    <path d="M3.45196 -7.62939e-06C-1.12404 -7.62939e-06 -1.09604 6.92899 3.45196 6.92899C7.99696 6.92899 8.03296 -7.62939e-06 3.45196 -7.62939e-06ZM3.45196 5.42899C0.883965 5.42899 0.859965 1.49999 3.45196 1.49999C6.04896 1.49999 6.01596 5.42899 3.45196 5.42899Z" fill="#F2F3F3"/>
  </g>
  <defs>
    <clipPath id="clip0">
      <rect width="24" height="24" fill="white"/>
    </clipPath>
  </defs>
</svg>
