<svg width="1441" height="1183" viewBox="0 0 1441 1183" fill="none" xmlns="http://www.w3.org/2000/svg">
<path d="M-56.0013 304.173C-134.41 387.569 -63.3737 651.832 -35.0543 720.555C28.4483 875.468 -77.4249 857.441 -80.3864 998.059C-83.3479 1138.68 203.818 1216.62 469.178 1137.76C789.191 1042.66 669.064 993.38 1103.09 1008.76C1537.12 1024.13 1582.57 639.195 1555.12 593.769C1531.86 555.273 1582.47 388.877 1513.93 361.54C1481.63 348.659 1481.93 239.04 1370.86 262.227C1249.4 287.581 1145.79 108.29 1021.16 198.281C896.537 288.272 890.119 80.2031 712.135 139.749C534.151 199.294 329.244 131.617 226.927 185.54C30.8699 288.866 41.1873 200.801 -56.0013 304.173Z" fill="url(#paint0_linear)"/>
<defs>
<linearGradient id="paint0_linear" x1="-98.4527" y1="345.598" x2="1843.85" y2="852.308" gradientUnits="userSpaceOnUse">
<stop stop-color="#0470DC"/>
<stop offset="1" stop-color="#70DDFF"/>
</linearGradient>
</defs>
</svg>
