<?xml version="1.0" standalone="no"?>
<!DOCTYPE svg PUBLIC "-//W3C//DTD SVG 20010904//EN"
 "http://www.w3.org/TR/2001/REC-SVG-20010904/DTD/svg10.dtd">
<svg version="1.0" xmlns="http://www.w3.org/2000/svg"
 width="700.000000pt" height="700.000000pt" viewBox="0 0 700.000000 700.000000"
 preserveAspectRatio="xMidYMid meet">
<metadata>
Created by potrace 1.11, written by Peter Selinger 2001-2013
</metadata>
<g transform="translate(0.000000,700.000000) scale(0.100000,-0.100000)"
fill="#000000" stroke="none">
<path d="M1070 6256 c-117 -33 -235 -127 -286 -228 -57 -113 -54 57 -54 -2525
0 -2345 0 -2382 20 -2445 47 -152 156 -261 309 -308 62 -20 106 -20 2435 -20
2595 0 2426 -4 2538 57 102 56 182 155 218 270 20 65 20 87 20 2442 0 1981 -3
2385 -14 2427 -42 158 -172 288 -330 330 -73 19 -4787 19 -4856 0z m2555 -447
c56 -21 125 -78 158 -131 42 -68 45 -109 45 -689 1 -305 1 -569 1 -587 l1 -32
63 34 c93 51 209 95 327 123 130 31 402 40 510 17 36 -8 74 -16 85 -18 123
-23 315 -107 443 -193 100 -67 230 -187 293 -270 24 -32 47 -59 52 -61 4 -2 7
-8 7 -14 0 -6 11 -26 25 -44 75 -99 174 -360 190 -504 3 -25 8 -63 11 -85 7
-48 6 -191 -1 -260 -21 -200 -96 -409 -210 -586 -59 -92 -67 -101 -180 -214
-147 -147 -310 -249 -503 -314 -85 -29 -128 -40 -237 -59 -22 -4 -112 -7 -200
-6 -144 0 -219 9 -330 38 -5 2 -23 6 -40 11 -86 23 -222 86 -340 158 -99 60
-277 227 -338 316 -17 26 -33 48 -37 51 -3 3 -15 21 -27 40 -135 226 -200 454
-201 710 0 63 -1 244 -1 403 l-1 287 -370 0 -370 0 0 -762 c1 -858 -2 -826 75
-985 71 -145 216 -278 362 -332 108 -39 154 -45 398 -46 260 -2 309 -7 369
-37 47 -24 121 -99 141 -142 43 -95 42 -188 -4 -281 -38 -76 -93 -126 -170
-156 -52 -20 -74 -21 -325 -21 -149 1 -286 4 -305 7 -20 3 -49 7 -66 9 -56 7
-160 34 -235 62 -412 148 -730 498 -836 919 -39 157 -42 219 -43 970 0 402 -1
744 -1 762 l0 32 -202 3 c-192 3 -206 4 -253 28 -64 31 -131 98 -158 158 -17
37 -22 66 -22 137 0 78 4 97 27 140 35 67 90 118 162 151 58 26 65 27 253 28
l193 1 0 70 c1 38 1 138 1 222 0 84 5 167 10 185 11 34 17 58 18 70 3 21 88
111 126 134 149 87 342 43 432 -99 47 -74 53 -116 53 -357 l0 -226 368 1 367
0 5 510 c5 494 6 511 26 556 53 113 166 188 286 189 44 0 86 -7 123 -21z"/>
<path d="M4467 3924 c-1 -1 -23 -5 -48 -8 -244 -32 -460 -206 -547 -438 -53
-142 -57 -305 -12 -449 79 -254 312 -449 567 -476 157 -16 255 0 387 62 284
135 442 454 375 760 -70 321 -338 542 -667 549 -30 1 -54 0 -55 0z"/>
</g>
</svg>
