<svg width="24" height="25" viewBox="0 0 24 25" fill="none"
  xmlns="http://www.w3.org/2000/svg">
  <g clip-path="url(#clip0)">
    <path d="M0.338524 4.83696L2.93552 6.54496V17.412L0.223524 20.088C-0.252476 20.559 0.0825238 21.372 0.750524 21.372H6.61952C7.28652 21.372 7.62352 20.56 7.14652 20.088L4.43452 17.412V9.49996C7.21552 15.416 9.92653 21.173 9.86152 21.042C10.1355 21.598 11.0025 21.613 11.2375 20.967L11.2385 20.965C11.2385 20.965 11.2395 20.964 11.2395 20.963C11.8895 19.17 13.2835 15.325 13.1945 15.569C13.2445 15.43 15.6155 8.66296 15.6525 8.55796V18.331L13.9115 20.096C13.4445 20.57 13.7815 21.373 14.4455 21.373H23.2505C23.9125 21.373 24.2505 20.574 23.7865 20.099L22.1135 18.386L22.0465 6.45296L23.7775 4.74496C24.2535 4.27396 23.9185 3.46096 23.2505 3.46096C22.5485 3.46096 25.7955 3.45996 16.3805 3.46496C15.4225 3.49296 15.7465 4.35396 12.3945 13.237L8.28452 3.90796C8.16453 3.63596 7.89452 3.45996 7.59752 3.45996H0.750524C0.00852375 3.46096 -0.282476 4.42996 0.338524 4.83696ZM2.57752 19.873L3.68452 18.78L4.79152 19.873H2.57752ZM17.1525 4.96096H21.4235C20.9445 5.49596 20.5425 5.65196 20.5445 6.14596L20.6155 18.697C20.6175 19.173 21.0065 19.34 21.4695 19.872H16.2395C16.7565 19.285 17.1535 19.124 17.1535 18.638V4.96096H17.1525ZM7.10852 4.96096L11.6625 15.296L10.4365 18.743C4.26052 5.62696 4.47752 5.42096 3.25552 4.96096H7.10852Z" fill="#F2F3F3"/>
  </g>
  <defs>
    <clipPath id="clip0">
      <rect y="0.459961" width="24" height="24" fill="white"/>
    </clipPath>
  </defs>
</svg>
