<svg width="24" height="24" viewBox="0 0 512 512" fill="none"
  xmlns="http://www.w3.org/2000/svg">
  <g clip-path="url(#clip0)">
    <path d="M376.128 59.3493C376.853 87.5093 396.437 115.477 433.408 115.477C467.989 115.477 490.816 89.536 490.816 57.7493C490.816 29.056 471.083 0 433.387 0C412.949 0 394.219 9.13067 383.573 28.1813L291.904 0.682667C283.072 -1.94133 274.091 3.30667 271.829 11.9253L230.805 167.872C183.104 171.285 139.541 184.448 103.851 204.331C44.7574 148.971 -36.0319 239.168 16.5761 301.653C-21.2693 419.883 114.581 512 256 512C398.528 512 532.779 418.347 495.424 301.653C547.861 239.381 467.669 149.035 408.064 204.288C368.171 182.101 318.336 168.491 264.064 167.253L298.56 36.096L376.128 59.3493ZM433.387 32C452.139 32 458.795 45.8667 458.795 57.7707C458.795 72 450.069 83.4987 433.387 83.4987C414.613 83.4987 407.979 69.632 407.979 57.728C407.979 43.3493 416.768 32 433.387 32ZM75.3281 223.04C58.4107 235.989 44.2881 250.709 33.5788 266.816C25.4721 236.693 51.4774 210.667 75.3281 223.04ZM256 480C65.2161 480 -29.7813 326.784 107.051 238.976C116.053 234.837 163.883 198.955 256 198.955C336.128 198.955 372.779 224.213 404.907 238.955C541.227 326.4 447.957 480 256 480ZM478.421 266.837C467.712 250.709 453.589 235.989 436.651 223.04C460.992 210.475 486.464 236.992 478.421 266.837Z" fill="black"/>
    <path d="M219.84 318.613C219.84 290.432 198.549 271.552 172.544 271.552C149.589 271.552 125.205 288.043 125.205 318.613C125.205 346.773 146.453 365.675 172.501 365.675C195.456 365.675 219.84 349.184 219.84 318.613ZM157.205 318.613C157.205 304.64 168.939 303.552 172.544 303.552C181.141 303.552 187.84 308.437 187.84 318.613C187.84 332.587 176.107 333.675 172.501 333.675C168.917 333.675 157.205 332.587 157.205 318.613Z" fill="black"/>
    <path d="M339.499 271.552C316.544 271.552 292.16 288.043 292.16 318.613C292.16 346.773 313.408 365.675 339.456 365.675C362.411 365.675 386.795 349.184 386.795 318.613C386.795 290.432 365.504 271.552 339.499 271.552ZM339.456 333.675C335.872 333.675 324.16 332.587 324.16 318.613C324.16 304.64 335.893 303.552 339.499 303.552C348.096 303.552 354.795 308.437 354.795 318.613C354.795 332.587 343.061 333.675 339.456 333.675Z" fill="black"/>
    <path d="M326.336 392.96C302.741 425.323 209.984 425.728 185.685 392.981C173.739 375.659 147.584 393.472 159.211 410.944C193.152 462.187 318.848 462.208 352.789 410.944C364.224 393.813 338.56 375.957 326.336 392.96Z" fill="black"/>
  </g>
  <defs>
    <clipPath id="clip0">
      <rect width="24" height="24" fill="white"/>
    </clipPath>
  </defs>
</svg>
