<svg viewBox="0 0 1042 730" fill="none"
  xmlns="http://www.w3.org/2000/svg">
  <g id="Frame 2">
    <g id="Background">
      <path id="Vector" opacity="0.1" d="M69.2792 371.693C69.2792 371.563 69.2792 371.424 69.2792 371.286C69.7402 361.48 71.5115 351.78 74.5455 342.445C74.7184 341.917 74.8914 341.38 75.0729 340.861C82.7982 318.342 97.585 298.927 117.229 285.508C139.248 270.487 165.977 264.008 192.42 267.281C218.863 270.553 243.211 283.355 260.915 303.293C262.767 292.782 265.697 282.491 269.657 272.582C298.511 276.234 327.631 277.321 356.676 275.828C338.877 284.046 320.423 290.756 301.505 295.89L302.18 298.401C323.41 292.629 344.057 284.889 363.853 275.283L369.829 272.382L363.205 272.815C332.347 274.839 301.368 273.949 270.678 270.157C277.318 254.3 286.527 239.65 297.934 226.797C347.709 221.775 397.094 211.316 443.211 190.579L442.147 188.215C397.258 208.415 349.153 218.796 300.589 223.905C317.027 206.261 337.338 192.686 359.916 184.251C382.494 175.816 406.722 172.753 430.685 175.303C454.649 177.853 477.692 185.947 497.995 198.946C518.298 211.944 535.304 229.491 547.671 250.2C552.272 205.539 570.8 163.461 600.628 129.937C627.183 140.56 654.601 148.877 682.58 154.794C724.657 163.749 767.72 167.181 810.683 165.003C792.884 173.22 774.429 179.93 755.512 185.064L756.187 187.575C777.411 181.802 798.052 174.062 817.843 164.457L823.818 161.557L817.194 161.989C743.964 166.805 670.584 155.165 602.427 127.919C604.992 125.108 607.633 122.361 610.348 119.676C695.456 121.408 788.147 120.542 872.062 89.9526C903.157 109.169 928.822 136.037 946.611 167.996C964.399 199.955 973.721 235.942 973.686 272.53C973.686 312.756 962.644 368.074 943.42 423.573C934.854 448.412 924.773 472.701 913.232 496.303C907.361 508.251 901.126 519.862 894.58 530.979C886.687 544.473 877.998 557.483 868.56 569.941C866.865 572.175 865.15 574.369 863.415 576.522C853.742 588.779 842.886 600.052 831.004 610.176C828.6 612.185 826.182 614.099 823.749 615.917C817.228 620.852 810.283 625.198 802.995 628.904C790.309 635.268 777.217 639 763.822 639.537C762.75 639.58 761.669 639.606 760.597 639.606V640.047H179.491V639.606H179.058C175.709 639.593 172.387 639.007 169.235 637.874C148.688 630.575 129.768 601.267 114.038 564.227C110.579 556.01 107.224 547.421 104.068 538.59C101.283 530.797 98.6372 522.858 96.1295 514.84C88.8371 491.335 82.7329 467.478 77.8401 443.357C72.2972 415.893 69.1928 391.884 69.1928 376.689C69.1669 374.992 69.1667 373.347 69.2792 371.693Z" fill="white"/>
      <g id="Group" opacity="0.1">
        <path id="Vector_2" opacity="0.1" d="M97.5207 520.245C100.809 530.753 104.323 541.183 107.929 551.373C108.931 548.37 109.436 545.223 109.425 542.056C109.425 531.922 104.437 523.32 97.5207 520.245Z" fill="#3F3D56"/>
        <path id="Vector_3" opacity="0.1" d="M62.2607 339.169C62.2607 359.085 66.2742 390.554 73.5983 426.552C80.0132 458.166 88.0164 489.437 97.5774 520.245C100.865 530.753 104.38 541.183 107.985 551.373C112.123 562.949 116.488 574.207 121.058 584.976C133.549 580.386 144.779 572.904 153.829 563.139C162.88 553.375 169.495 541.607 173.133 528.795C176.772 515.983 177.331 502.492 174.765 489.422C172.199 476.353 166.581 464.076 158.37 453.595C167.02 442.565 172.793 429.553 175.168 415.733C177.543 401.913 176.446 387.718 171.975 374.428L108.167 395.911L168.007 364.725C165.371 359.272 162.16 354.116 158.426 349.348C166.397 339.176 171.927 327.308 174.591 314.658C177.255 302.009 176.982 288.916 173.792 276.388C170.602 263.861 164.581 252.235 156.193 242.405C147.805 232.575 137.274 224.804 125.411 219.692C99.6558 237.279 80.2688 262.728 70.1403 292.243L81.1945 300.482L69.3354 294.319C65.3575 306.555 63.0353 319.269 62.4308 332.121H65.764L62.3627 332.677C62.2607 334.822 62.2607 336.978 62.2607 339.169Z" fill="#70DDFF"/>
        <path id="Vector_4" opacity="0.1" d="M73.5419 426.552C79.9568 458.166 87.96 489.437 97.521 520.245C100.809 530.753 104.324 541.183 107.929 551.374C112.067 562.949 116.432 574.207 121.001 584.976C133.493 580.386 144.722 572.904 153.773 563.14C162.824 553.375 169.438 541.607 173.077 528.795C176.715 515.983 177.274 502.492 174.709 489.422C172.143 476.353 166.525 464.076 158.313 453.595C169.987 438.741 176.322 420.383 176.295 401.483C176.295 395.809 117.657 410.675 73.5419 426.552Z" fill="black"/>
      </g>
    </g>
    <g id="Laptop">
      <g id="Group 4">
        <g id="Laptop_2">
          <path id="Vector_5" d="M199.992 565.231H137.06V563.934H108.523V565.231H45.3314C44.7724 565.231 44.2188 565.341 43.7023 565.555C43.1859 565.769 42.7166 566.083 42.3213 566.478C41.926 566.873 41.6124 567.343 41.3985 567.859C41.1846 568.376 41.0745 568.93 41.0745 569.489V655.683C41.0745 656.812 41.523 657.895 42.3213 658.694C43.1196 659.492 44.2024 659.941 45.3314 659.941H199.992C201.121 659.941 202.204 659.492 203.002 658.694C203.801 657.895 204.249 656.812 204.249 655.683V569.489C204.249 568.93 204.139 568.376 203.925 567.859C203.711 567.343 203.398 566.873 203.002 566.478C202.607 566.083 202.138 565.769 201.621 565.555C201.105 565.341 200.551 565.231 199.992 565.231Z" fill="#8C8C8C"/>
          <path id="Vector_6" d="M198.542 572.756H46.7817V658.384H198.542V572.756Z" fill="#1E1E1E"/>
          <path id="Vector_7" d="M122.532 570.421C123.392 570.421 124.089 569.724 124.089 568.864C124.089 568.004 123.392 567.307 122.532 567.307C121.672 567.307 120.976 568.004 120.976 568.864C120.976 569.724 121.672 570.421 122.532 570.421Z" fill="#6C63FF"/>
          <path id="Vector_8" d="M208.51 656.827H193.699V655.759C193.699 655.732 193.694 655.704 193.683 655.679C193.673 655.653 193.657 655.629 193.637 655.61C193.618 655.59 193.595 655.575 193.569 655.564C193.543 655.553 193.516 655.548 193.488 655.548H188.41C188.382 655.548 188.355 655.553 188.329 655.564C188.303 655.575 188.28 655.59 188.26 655.61C188.241 655.629 188.225 655.653 188.214 655.679C188.204 655.704 188.198 655.732 188.198 655.759V656.827H185.025V655.759C185.025 655.732 185.019 655.704 185.008 655.679C184.998 655.653 184.982 655.629 184.963 655.61C184.943 655.59 184.92 655.575 184.894 655.564C184.868 655.553 184.841 655.548 184.813 655.548H179.735C179.707 655.548 179.68 655.553 179.654 655.564C179.628 655.575 179.605 655.59 179.585 655.61C179.566 655.629 179.55 655.653 179.54 655.679C179.529 655.704 179.523 655.732 179.523 655.759V656.827H176.35V655.759C176.35 655.732 176.344 655.704 176.334 655.679C176.323 655.653 176.307 655.629 176.288 655.61C176.268 655.59 176.245 655.575 176.219 655.564C176.193 655.553 176.166 655.548 176.138 655.548H171.06C171.032 655.548 171.005 655.553 170.979 655.564C170.953 655.575 170.93 655.59 170.91 655.61C170.891 655.629 170.875 655.653 170.865 655.679C170.854 655.704 170.849 655.732 170.849 655.759V656.827H167.675V655.759C167.675 655.732 167.669 655.704 167.659 655.679C167.648 655.653 167.632 655.629 167.613 655.61C167.593 655.59 167.57 655.575 167.544 655.564C167.518 655.553 167.491 655.548 167.463 655.548H162.385C162.357 655.548 162.33 655.553 162.304 655.564C162.279 655.575 162.255 655.59 162.236 655.61C162.216 655.629 162.2 655.653 162.19 655.679C162.179 655.704 162.174 655.732 162.174 655.759V656.827H159V655.759C159 655.732 158.994 655.704 158.984 655.679C158.973 655.653 158.958 655.629 158.938 655.61C158.918 655.59 158.895 655.575 158.869 655.564C158.844 655.553 158.816 655.548 158.788 655.548H153.71C153.683 655.548 153.655 655.553 153.629 655.564C153.604 655.575 153.58 655.59 153.561 655.61C153.541 655.629 153.525 655.653 153.515 655.679C153.504 655.704 153.499 655.732 153.499 655.759V656.827H150.325V655.759C150.325 655.732 150.32 655.704 150.309 655.679C150.298 655.653 150.283 655.629 150.263 655.61C150.243 655.59 150.22 655.575 150.194 655.564C150.169 655.553 150.141 655.548 150.113 655.548H145.035C145.008 655.548 144.98 655.553 144.954 655.564C144.929 655.575 144.905 655.59 144.886 655.61C144.866 655.629 144.851 655.653 144.84 655.679C144.829 655.704 144.824 655.732 144.824 655.759V656.827H141.65V655.759C141.65 655.732 141.645 655.704 141.634 655.679C141.623 655.653 141.608 655.629 141.588 655.61C141.568 655.59 141.545 655.575 141.519 655.564C141.494 655.553 141.466 655.548 141.438 655.548H101.661C101.633 655.548 101.606 655.553 101.58 655.564C101.554 655.575 101.531 655.59 101.511 655.61C101.492 655.629 101.476 655.653 101.465 655.679C101.455 655.704 101.449 655.732 101.449 655.759V656.827H98.2756V655.759C98.2756 655.732 98.2701 655.704 98.2595 655.679C98.2488 655.653 98.2332 655.629 98.2136 655.61C98.194 655.59 98.1706 655.575 98.145 655.564C98.1193 655.553 98.0918 655.548 98.064 655.548H92.986C92.9582 655.548 92.9307 655.553 92.905 655.564C92.8794 655.575 92.856 655.59 92.8364 655.61C92.8167 655.629 92.8012 655.653 92.7905 655.679C92.7799 655.704 92.7744 655.732 92.7744 655.759V656.827H89.6007V655.759C89.6007 655.732 89.5952 655.704 89.5846 655.679C89.5739 655.653 89.5583 655.629 89.5387 655.61C89.5191 655.59 89.4957 655.575 89.4701 655.564C89.4444 655.553 89.4169 655.548 89.3891 655.548H84.3111C84.2833 655.548 84.2558 655.553 84.2301 655.564C84.2045 655.575 84.1811 655.59 84.1615 655.61C84.1418 655.629 84.1263 655.653 84.1156 655.679C84.105 655.704 84.0995 655.732 84.0995 655.759V656.827H80.9258V655.759C80.9258 655.732 80.9203 655.704 80.9097 655.679C80.899 655.653 80.8834 655.629 80.8638 655.61C80.8442 655.59 80.8208 655.575 80.7952 655.564C80.7695 655.553 80.742 655.548 80.7142 655.548H75.6362C75.6084 655.548 75.5809 655.553 75.5552 655.564C75.5296 655.575 75.5062 655.59 75.4866 655.61C75.4669 655.629 75.4513 655.653 75.4407 655.679C75.4301 655.704 75.4246 655.732 75.4246 655.759V656.827H72.2509V655.759C72.2509 655.732 72.2454 655.704 72.2348 655.679C72.2241 655.653 72.2085 655.629 72.1889 655.61C72.1693 655.59 72.1459 655.575 72.1203 655.564C72.0946 655.553 72.0671 655.548 72.0393 655.548H66.9613C66.9335 655.548 66.906 655.553 66.8803 655.564C66.8546 655.575 66.8313 655.59 66.8117 655.61C66.792 655.629 66.7764 655.653 66.7658 655.679C66.7552 655.704 66.7497 655.732 66.7497 655.759V656.827H63.576V655.759C63.576 655.732 63.5705 655.704 63.5599 655.679C63.5492 655.653 63.5336 655.629 63.514 655.61C63.4943 655.59 63.471 655.575 63.4453 655.564C63.4197 655.553 63.3922 655.548 63.3644 655.548H58.2864C58.2586 655.548 58.2311 655.553 58.2054 655.564C58.1798 655.575 58.1564 655.59 58.1368 655.61C58.1171 655.629 58.1015 655.653 58.0909 655.679C58.0803 655.704 58.0748 655.732 58.0748 655.759V656.827H54.9011V655.759C54.9011 655.732 54.8956 655.704 54.885 655.679C54.8743 655.653 54.8587 655.629 54.8391 655.61C54.8194 655.59 54.7961 655.575 54.7705 655.564C54.7448 655.553 54.7173 655.548 54.6895 655.548H49.6115C49.5837 655.548 49.5562 655.553 49.5305 655.564C49.5049 655.575 49.4815 655.59 49.4619 655.61C49.4422 655.629 49.4266 655.653 49.416 655.679C49.4054 655.704 49.3999 655.732 49.3999 655.759V656.827H39.6671C38.3203 656.827 37.0287 657.362 36.0764 658.314C35.1241 659.267 34.5891 660.559 34.5891 661.906V664.203C34.5891 665.55 35.1241 666.842 36.0764 667.794C37.0287 668.747 38.3203 669.282 39.6671 669.282H208.51C209.857 669.282 211.149 668.747 212.101 667.794C213.053 666.842 213.588 665.55 213.588 664.203V661.906C213.588 661.239 213.457 660.579 213.202 659.962C212.947 659.346 212.572 658.786 212.101 658.314C211.629 657.843 211.07 657.469 210.454 657.213C209.837 656.958 209.177 656.827 208.51 656.827Z" fill="#8C8C8C"/>
        </g>
      </g>
      <g id="Code">
        <path id="Vector_9" d="M98.8613 587.156H86.5001C85.4175 587.156 84.5398 588.033 84.5398 589.116C84.5398 590.199 85.4175 591.076 86.5001 591.076H98.8613C99.9439 591.076 100.822 590.199 100.822 589.116C100.822 588.033 99.9439 587.156 98.8613 587.156Z" fill="#569CD6"/>
        <path id="Vector_10" d="M155.245 587.156H153.437C152.354 587.156 151.477 588.033 151.477 589.116C151.477 590.199 152.354 591.076 153.437 591.076H155.245C156.328 591.076 157.205 590.199 157.205 589.116C157.205 588.033 156.328 587.156 155.245 587.156Z" fill="#C586C0"/>
        <path id="Vector_11" d="M166.702 587.156H164.894C163.812 587.156 162.934 588.033 162.934 589.116C162.934 590.199 163.812 591.076 164.894 591.076H166.702C167.785 591.076 168.663 590.199 168.663 589.116C168.663 588.033 167.785 587.156 166.702 587.156Z" fill="#C586C0"/>
        <path id="Vector_12" d="M143.486 587.156H108.511C107.428 587.156 106.551 588.033 106.551 589.116C106.551 590.199 107.428 591.076 108.511 591.076H143.486C144.568 591.076 145.446 590.199 145.446 589.116C145.446 588.033 144.568 587.156 143.486 587.156Z" fill="#DCDCAA"/>
        <path id="Vector_13" d="M78.3584 612.489H65.9972C64.9145 612.489 64.0369 613.366 64.0369 614.449C64.0369 615.531 64.9145 616.409 65.9972 616.409H78.3584C79.441 616.409 80.3187 615.531 80.3187 614.449C80.3187 613.366 79.441 612.489 78.3584 612.489Z" fill="#C586C0"/>
        <path id="Vector_14" d="M134.742 612.489H132.934C131.851 612.489 130.973 613.366 130.973 614.449C130.973 615.531 131.851 616.409 132.934 616.409H134.742C135.825 616.409 136.702 615.531 136.702 614.449C136.702 613.366 135.825 612.489 134.742 612.489Z" fill="#4EC980"/>
        <path id="Vector_15" d="M146.199 612.489H144.391C143.309 612.489 142.431 613.366 142.431 614.449C142.431 615.531 143.309 616.409 144.391 616.409H146.199C147.282 616.409 148.16 615.531 148.16 614.449C148.16 613.366 147.282 612.489 146.199 612.489Z" fill="#4EC980"/>
        <path id="Vector_16" d="M122.983 612.489H88.0079C86.9253 612.489 86.0476 613.366 86.0476 614.449C86.0476 615.531 86.9253 616.409 88.0079 616.409H122.983C124.065 616.409 124.943 615.531 124.943 614.449C124.943 613.366 124.065 612.489 122.983 612.489Z" fill="#CE9178"/>
        <path id="Vector_17" d="M145.596 595.901H133.235C132.153 595.901 131.275 596.779 131.275 597.862C131.275 598.944 132.153 599.822 133.235 599.822H145.596C146.679 599.822 147.557 598.944 147.557 597.862C147.557 596.779 146.679 595.901 145.596 595.901Z" fill="#CE9178"/>
        <path id="Vector_18" d="M167.607 595.901H155.246C154.163 595.901 153.286 596.779 153.286 597.862C153.286 598.944 154.163 599.822 155.246 599.822H167.607C168.69 599.822 169.567 598.944 169.567 597.862C169.567 596.779 168.69 595.901 167.607 595.901Z" fill="#9CDCFE"/>
        <path id="Vector_19" d="M179.065 595.901H177.256C176.174 595.901 175.296 596.779 175.296 597.862C175.296 598.944 176.174 599.822 177.256 599.822H179.065C180.147 599.822 181.025 598.944 181.025 597.862C181.025 596.779 180.147 595.901 179.065 595.901Z" fill="#F2F3F3"/>
        <path id="Vector_20" d="M67.8054 595.901H65.9971C64.9145 595.901 64.0369 596.779 64.0369 597.862C64.0369 598.944 64.9145 599.822 65.9971 599.822H67.8054C68.888 599.822 69.7657 598.944 69.7657 597.862C69.7657 596.779 68.888 595.901 67.8054 595.901Z" fill="#569CD6"/>
        <path id="Vector_21" d="M79.2629 595.901H77.4547C76.372 595.901 75.4944 596.779 75.4944 597.862C75.4944 598.944 76.372 599.822 77.4547 599.822H79.2629C80.3455 599.822 81.2232 598.944 81.2232 597.862C81.2232 596.779 80.3455 595.901 79.2629 595.901Z" fill="#569CD6"/>
        <path id="Vector_22" d="M123.887 595.901H88.9124C87.8298 595.901 86.9521 596.779 86.9521 597.862C86.9521 598.944 87.8298 599.822 88.9124 599.822H123.887C124.97 599.822 125.848 598.944 125.848 597.862C125.848 596.779 124.97 595.901 123.887 595.901Z" fill="#4EC980"/>
        <path id="Vector_23" d="M99.4653 608.266H111.827C112.909 608.266 113.787 607.389 113.787 606.306C113.787 605.223 112.909 604.346 111.827 604.346H99.4653C98.3827 604.346 97.505 605.223 97.505 606.306C97.505 607.389 98.3827 608.266 99.4653 608.266Z" fill="#9CDCFE"/>
        <path id="Vector_24" d="M77.4549 608.266H89.8161C90.8987 608.266 91.7764 607.389 91.7764 606.306C91.7764 605.223 90.8987 604.346 89.8161 604.346H77.4549C76.3722 604.346 75.4946 605.223 75.4946 606.306C75.4946 607.389 76.3722 608.266 77.4549 608.266Z" fill="#9CDCFE"/>
        <path id="Vector_25" d="M65.9971 608.266H67.8053C68.888 608.266 69.7656 607.389 69.7656 606.306C69.7656 605.223 68.888 604.346 67.8053 604.346H65.9971C64.9145 604.346 64.0368 605.223 64.0368 606.306C64.0368 607.389 64.9145 608.266 65.9971 608.266Z" fill="#C586C0"/>
        <path id="Vector_26" d="M177.256 608.266H179.065C180.147 608.266 181.025 607.389 181.025 606.306C181.025 605.223 180.147 604.346 179.065 604.346H177.256C176.174 604.346 175.296 605.223 175.296 606.306C175.296 607.389 176.174 608.266 177.256 608.266Z" fill="#9CDCFE"/>
        <path id="Vector_27" d="M165.799 608.266H167.607C168.69 608.266 169.567 607.389 169.567 606.306C169.567 605.223 168.69 604.346 167.607 604.346H165.799C164.716 604.346 163.839 605.223 163.839 606.306C163.839 607.389 164.716 608.266 165.799 608.266Z" fill="#9CDCFE"/>
        <path id="Vector_28" d="M121.174 608.266H156.149C157.232 608.266 158.11 607.389 158.11 606.306C158.11 605.223 157.232 604.346 156.149 604.346H121.174C120.092 604.346 119.214 605.223 119.214 606.306C119.214 607.389 120.092 608.266 121.174 608.266Z" fill="#DCDCAA"/>
      </g>
      <g id="Code_2">
        <path id="Vector_29" d="M98.8613 620.028H86.5001C85.4174 620.028 84.5398 620.906 84.5398 621.988C84.5398 623.071 85.4174 623.949 86.5001 623.949H98.8613C99.944 623.949 100.822 623.071 100.822 621.988C100.822 620.906 99.944 620.028 98.8613 620.028Z" fill="#569CD6"/>
        <path id="Vector_30" d="M155.245 620.028H153.437C152.354 620.028 151.476 620.906 151.476 621.988C151.476 623.071 152.354 623.949 153.437 623.949H155.245C156.327 623.949 157.205 623.071 157.205 621.988C157.205 620.906 156.327 620.028 155.245 620.028Z" fill="#C586C0"/>
        <path id="Vector_31" d="M166.702 620.028H164.894C163.811 620.028 162.934 620.906 162.934 621.988C162.934 623.071 163.811 623.949 164.894 623.949H166.702C167.785 623.949 168.663 623.071 168.663 621.988C168.663 620.906 167.785 620.028 166.702 620.028Z" fill="#C586C0"/>
        <path id="Vector_32" d="M143.486 620.028H108.511C107.428 620.028 106.551 620.906 106.551 621.988C106.551 623.071 107.428 623.949 108.511 623.949H143.486C144.568 623.949 145.446 623.071 145.446 621.988C145.446 620.906 144.568 620.028 143.486 620.028Z" fill="#DCDCAA"/>
        <path id="Vector_33" d="M145.596 628.774H133.235C132.153 628.774 131.275 629.652 131.275 630.734C131.275 631.817 132.153 632.695 133.235 632.695H145.596C146.679 632.695 147.557 631.817 147.557 630.734C147.557 629.652 146.679 628.774 145.596 628.774Z" fill="#CE9178"/>
        <path id="Vector_34" d="M167.607 628.774H155.246C154.163 628.774 153.286 629.652 153.286 630.734C153.286 631.817 154.163 632.695 155.246 632.695H167.607C168.69 632.695 169.567 631.817 169.567 630.734C169.567 629.652 168.69 628.774 167.607 628.774Z" fill="#9CDCFE"/>
        <path id="Vector_35" d="M179.065 628.774H177.256C176.174 628.774 175.296 629.652 175.296 630.734C175.296 631.817 176.174 632.695 177.256 632.695H179.065C180.147 632.695 181.025 631.817 181.025 630.734C181.025 629.652 180.147 628.774 179.065 628.774Z" fill="#F2F3F3"/>
        <path id="Vector_36" d="M67.8053 628.774H65.9972C64.9145 628.774 64.0369 629.652 64.0369 630.734C64.0369 631.817 64.9145 632.695 65.9972 632.695H67.8053C68.888 632.695 69.7657 631.817 69.7657 630.734C69.7657 629.652 68.888 628.774 67.8053 628.774Z" fill="#569CD6"/>
        <path id="Vector_37" d="M79.2628 628.774H77.4547C76.3721 628.774 75.4944 629.652 75.4944 630.734C75.4944 631.817 76.3721 632.695 77.4547 632.695H79.2628C80.3455 632.695 81.2232 631.817 81.2232 630.734C81.2232 629.652 80.3455 628.774 79.2628 628.774Z" fill="#569CD6"/>
        <path id="Vector_38" d="M123.887 628.774H88.9125C87.8298 628.774 86.9521 629.652 86.9521 630.734C86.9521 631.817 87.8298 632.695 88.9125 632.695H123.887C124.97 632.695 125.848 631.817 125.848 630.734C125.848 629.652 124.97 628.774 123.887 628.774Z" fill="#4EC980"/>
        <path id="Vector_39" d="M99.4654 641.139H111.827C112.909 641.139 113.787 640.261 113.787 639.179C113.787 638.096 112.909 637.219 111.827 637.219H99.4654C98.3827 637.219 97.5051 638.096 97.5051 639.179C97.5051 640.261 98.3827 641.139 99.4654 641.139Z" fill="#9CDCFE"/>
        <path id="Vector_40" d="M77.4546 641.139H89.8158C90.8985 641.139 91.7761 640.261 91.7761 639.179C91.7761 638.096 90.8985 637.219 89.8158 637.219H77.4546C76.372 637.219 75.4943 638.096 75.4943 639.179C75.4943 640.261 76.372 641.139 77.4546 641.139Z" fill="#9CDCFE"/>
        <path id="Vector_41" d="M65.9972 641.139H67.8053C68.888 641.139 69.7656 640.261 69.7656 639.179C69.7656 638.096 68.888 637.219 67.8053 637.219H65.9972C64.9145 637.219 64.0368 638.096 64.0368 639.179C64.0368 640.261 64.9145 641.139 65.9972 641.139Z" fill="#C586C0"/>
        <path id="Vector_42" d="M177.256 641.139H179.064C180.147 641.139 181.025 640.261 181.025 639.179C181.025 638.096 180.147 637.219 179.064 637.219H177.256C176.174 637.219 175.296 638.096 175.296 639.179C175.296 640.261 176.174 641.139 177.256 641.139Z" fill="#9CDCFE"/>
        <path id="Vector_43" d="M165.799 641.139H167.607C168.689 641.139 169.567 640.261 169.567 639.179C169.567 638.096 168.689 637.219 167.607 637.219H165.799C164.716 637.219 163.838 638.096 163.838 639.179C163.838 640.261 164.716 641.139 165.799 641.139Z" fill="#9CDCFE"/>
        <path id="Vector_44" d="M121.175 641.139H156.149C157.232 641.139 158.11 640.261 158.11 639.179C158.11 638.096 157.232 637.219 156.149 637.219H121.175C120.092 637.219 119.214 638.096 119.214 639.179C119.214 640.261 120.092 641.139 121.175 641.139Z" fill="#DCDCAA"/>
      </g>
    </g>
    <path id="Vector 1" opacity="0.66" d="M121.062 552.69V131.033C121.062 104.524 142.553 83.0332 169.062 83.0332H324.274" stroke="#569CD6" stroke-width="4" stroke-linecap="round" stroke-linejoin="round" stroke-dasharray="8 24"/>
    <g id="Cloud" opacity="0.66">
      <path id="Vector_45" d="M345.023 66.7178L367.829 81.2018L353.99 55.9757C357.915 52.8453 362.77 51.1142 367.787 51.0566H368.145C369.727 51.0759 371.308 50.9564 372.87 50.6992L380.619 55.5973L377.301 49.5851C382.773 47.6604 387.503 44.0648 390.825 39.3054L404.706 48.0505L395.97 32.137C404.055 22.4039 414.871 16.4337 426.967 16.4337C441.352 16.4337 454.267 25.0106 462.458 38.3595C464.908 42.3467 468.369 45.6137 472.489 47.829C476.609 50.0443 481.241 51.1288 485.915 50.9725H486.608C502.485 50.9725 515.379 68.9881 515.379 91.2292C515.379 113.47 502.485 131.507 486.608 131.507C483.116 131.496 479.679 130.638 476.591 129.005C471.184 126.369 465.269 124.943 459.256 124.827C453.243 124.711 447.277 125.907 441.772 128.333C437.111 130.405 432.067 131.475 426.967 131.475C421.866 131.475 416.823 130.405 412.161 128.333C406.699 125.959 400.79 124.79 394.836 124.906C388.883 125.022 383.024 126.42 377.658 129.005C374.594 130.594 371.196 131.43 367.746 131.444C351.848 131.444 338.975 113.428 338.975 91.1661C338.925 82.6396 341.004 74.2358 345.023 66.7178Z" fill="#03CED9" fill-opacity="0.33"/>
      <path id="Vector_46" d="M422.246 127.19C428.315 126.032 434.588 126.715 440.271 129.155C443.676 130.69 447.364 131.483 451.095 131.483C454.825 131.483 458.513 130.69 461.919 129.155C465.945 127.376 470.307 126.501 474.702 126.589C479.098 126.677 483.422 127.727 487.375 129.666C489.632 130.867 492.145 131.499 494.698 131.507C505.015 131.507 513.598 121.032 515.379 107.216C513.322 105.696 511.571 103.795 510.22 101.615C504.171 91.7901 494.867 85.4775 484.288 85.4775C473.71 85.4775 464.498 91.6663 458.449 101.429C456.647 104.364 454.122 106.78 451.119 108.442C448.117 110.104 444.74 110.955 441.315 110.914H441.038C432.901 110.883 425.792 117.52 422.246 127.19Z" fill="#00D9E6" fill-opacity="0.17"/>
    </g>
    <g id="Tablet">
      <path id="Vector_47" d="M956.77 145.048H955.607V143.011H956.479C956.634 143.011 956.782 142.95 956.891 142.841C957 142.732 957.061 142.583 957.061 142.429V131.953C957.061 131.799 957 131.651 956.891 131.542C956.782 131.433 956.634 131.371 956.479 131.371H955.607V125.422C955.607 123.758 955.279 122.11 954.642 120.572C954.005 119.034 953.072 117.637 951.895 116.46C950.719 115.283 949.322 114.35 947.784 113.713C946.247 113.076 944.599 112.748 942.935 112.748H941.642V111.293C941.642 111.139 941.581 110.991 941.472 110.881C941.363 110.772 941.215 110.711 941.06 110.711H930.587C930.433 110.711 930.285 110.772 930.176 110.881C930.066 110.991 930.005 111.139 930.005 111.293V112.748H740.774C739.11 112.748 737.463 113.076 735.925 113.713C734.388 114.35 732.991 115.283 731.814 116.46C730.638 117.637 729.704 119.034 729.068 120.572C728.431 122.11 728.103 123.758 728.103 125.422V395.14C728.103 396.804 728.431 398.452 729.068 399.99C729.704 401.528 730.638 402.925 731.814 404.102C732.991 405.279 734.388 406.212 735.925 406.849C737.463 407.486 739.11 407.814 740.774 407.814H942.935C944.599 407.814 946.247 407.486 947.784 406.849C949.322 406.212 950.719 405.279 951.895 404.102C953.072 402.925 954.005 401.528 954.642 399.99C955.279 398.452 955.607 396.804 955.607 395.14V156.688H956.77C956.925 156.688 957.073 156.626 957.182 156.517C957.291 156.408 957.352 156.26 957.352 156.106V145.63C957.352 145.476 957.291 145.328 957.182 145.218C957.073 145.109 956.925 145.048 956.77 145.048Z" fill="#3F3D56"/>
      <g id="Frame 4">
        <g clip-path="url(#clip0)">
          <path id="Vector_48" d="M946.88 121.038H738.575V397.487H946.88V121.038Z" fill="#F2F2F2"/>
          <g id="Mockup">
            <g id="Bg">
              <path id="Vector 5" d="M738.794 275.845C728.334 286.973 737.81 322.232 741.588 331.402C750.059 352.071 735.936 349.666 735.541 368.428C735.146 387.19 773.452 397.59 808.85 387.068C851.539 374.379 835.514 367.804 893.412 369.855C951.309 371.907 957.373 320.546 953.711 314.485C950.608 309.349 957.359 287.147 948.216 283.5C943.907 281.781 943.947 267.155 929.131 270.249C912.929 273.632 899.107 249.709 882.483 261.717C865.858 273.724 865.002 245.962 841.26 253.907C817.518 261.852 790.184 252.822 776.535 260.017C750.382 273.803 751.758 262.053 738.794 275.845Z" fill="#0470DC"/>
              <ellipse id="Ellipse 7" rx="1.50809" ry="1.50842" transform="matrix(1 0 0 -1 922.765 261.91)" fill="#FECB42"/>
              <ellipse id="Ellipse 8" cx="874.431" cy="257.634" rx="4.47359" ry="4.47462" fill="#E8F5FF"/>
            </g>
            <g id="Grid">
              <path id="Vector_49" d="M805.627 295.598H813.691C814.796 295.598 815.691 294.702 815.691 293.598V285.53C815.691 284.426 814.796 283.53 813.691 283.53H805.627C804.522 283.53 803.627 284.426 803.627 285.53V293.598C803.627 294.702 804.522 295.598 805.627 295.598Z" fill="#9CDCFE"/>
              <path id="Vector_50" d="M805.627 311.688H813.691C814.796 311.688 815.691 310.792 815.691 309.687V301.62C815.691 300.516 814.796 299.62 813.691 299.62H805.627C804.522 299.62 803.627 300.516 803.627 301.62V309.688C803.627 310.792 804.522 311.688 805.627 311.688Z" fill="#9CDCFE"/>
              <path id="Vector_51" d="M805.627 327.777H813.691C814.796 327.777 815.691 326.882 815.691 325.777V317.71C815.691 316.605 814.796 315.71 813.691 315.71H805.627C804.522 315.71 803.627 316.605 803.627 317.71V325.777C803.627 326.882 804.522 327.777 805.627 327.777Z" fill="#9CDCFE"/>
              <path id="Vector_52" d="M805.627 343.867H813.691C814.796 343.867 815.691 342.972 815.691 341.867V333.8C815.691 332.695 814.796 331.8 813.691 331.8H805.627C804.522 331.8 803.627 332.695 803.627 333.8V341.867C803.627 342.972 804.522 343.867 805.627 343.867Z" fill="#9CDCFE"/>
              <path id="Vector_53" d="M805.627 359.957H813.691C814.796 359.957 815.691 359.062 815.691 357.957V349.89C815.691 348.785 814.796 347.89 813.691 347.89H805.627C804.522 347.89 803.627 348.785 803.627 349.89V357.957C803.627 359.062 804.522 359.957 805.627 359.957Z" fill="#9CDCFE"/>
              <path id="Vector_54" d="M853.885 295.598H861.95C863.054 295.598 863.95 294.702 863.95 293.598V285.53C863.95 284.426 863.054 283.53 861.95 283.53H853.885C852.781 283.53 851.885 284.426 851.885 285.53V293.598C851.885 294.702 852.781 295.598 853.885 295.598Z" fill="#9CDCFE"/>
              <path id="Vector_55" d="M853.885 311.688H861.95C863.054 311.688 863.95 310.792 863.95 309.687V301.62C863.95 300.516 863.054 299.62 861.95 299.62H853.885C852.781 299.62 851.885 300.516 851.885 301.62V309.688C851.885 310.792 852.781 311.688 853.885 311.688Z" fill="#9CDCFE"/>
              <path id="Vector_56" d="M853.885 327.777H861.95C863.054 327.777 863.95 326.882 863.95 325.777V317.71C863.95 316.605 863.054 315.71 861.95 315.71H853.885C852.781 315.71 851.885 316.605 851.885 317.71V325.777C851.885 326.882 852.781 327.777 853.885 327.777Z" fill="#9CDCFE"/>
              <path id="Vector_57" d="M853.885 343.867H861.95C863.054 343.867 863.95 342.972 863.95 341.867V333.8C863.95 332.695 863.054 331.8 861.95 331.8H853.885C852.781 331.8 851.885 332.695 851.885 333.8V341.867C851.885 342.972 852.781 343.867 853.885 343.867Z" fill="#9CDCFE"/>
              <path id="Vector_58" d="M853.885 359.957H861.95C863.054 359.957 863.95 359.062 863.95 357.957V349.89C863.95 348.785 863.054 347.89 861.95 347.89H853.885C852.781 347.89 851.885 348.785 851.885 349.89V357.957C851.885 359.062 852.781 359.957 853.885 359.957Z" fill="#9CDCFE"/>
              <path id="Vector_59" d="M821.713 295.598H829.778C830.882 295.598 831.778 294.702 831.778 293.598V285.53C831.778 284.426 830.882 283.53 829.778 283.53H821.713C820.609 283.53 819.713 284.426 819.713 285.53V293.598C819.713 294.702 820.609 295.598 821.713 295.598Z" fill="#9CDCFE"/>
              <path id="Vector_60" d="M821.713 311.688H829.778C830.882 311.688 831.778 310.792 831.778 309.687V301.62C831.778 300.516 830.882 299.62 829.778 299.62H821.713C820.609 299.62 819.713 300.516 819.713 301.62V309.688C819.713 310.792 820.609 311.688 821.713 311.688Z" fill="#9CDCFE"/>
              <path id="Vector_61" d="M821.713 327.777H829.778C830.882 327.777 831.778 326.882 831.778 325.777V317.71C831.778 316.605 830.882 315.71 829.778 315.71H821.713C820.609 315.71 819.713 316.605 819.713 317.71V325.777C819.713 326.882 820.609 327.777 821.713 327.777Z" fill="#9CDCFE"/>
              <path id="Vector_62" d="M821.713 343.867H829.778C830.882 343.867 831.778 342.972 831.778 341.867V333.8C831.778 332.695 830.882 331.8 829.778 331.8H821.713C820.609 331.8 819.713 332.695 819.713 333.8V341.867C819.713 342.972 820.609 343.867 821.713 343.867Z" fill="#9CDCFE"/>
              <path id="Vector_63" d="M821.713 359.957H829.778C830.882 359.957 831.778 359.062 831.778 357.957V349.89C831.778 348.785 830.882 347.89 829.778 347.89H821.713C820.609 347.89 819.713 348.785 819.713 349.89V357.957C819.713 359.062 820.609 359.957 821.713 359.957Z" fill="#9CDCFE"/>
              <path id="Vector_64" d="M869.972 295.598H878.036C879.141 295.598 880.036 294.702 880.036 293.598V285.53C880.036 284.426 879.141 283.53 878.036 283.53H869.972C868.867 283.53 867.972 284.426 867.972 285.53V293.598C867.972 294.702 868.867 295.598 869.972 295.598Z" fill="#9CDCFE"/>
              <path id="Vector_65" d="M869.972 311.688H878.036C879.141 311.688 880.036 310.792 880.036 309.687V301.62C880.036 300.516 879.141 299.62 878.036 299.62H869.972C868.867 299.62 867.972 300.516 867.972 301.62V309.688C867.972 310.792 868.867 311.688 869.972 311.688Z" fill="#9CDCFE"/>
              <path id="Vector_66" d="M869.972 327.777H878.036C879.141 327.777 880.036 326.882 880.036 325.777V317.71C880.036 316.605 879.141 315.71 878.036 315.71H869.972C868.867 315.71 867.972 316.605 867.972 317.71V325.777C867.972 326.882 868.867 327.777 869.972 327.777Z" fill="#9CDCFE"/>
              <path id="Vector_67" d="M869.972 343.867H878.036C879.141 343.867 880.036 342.972 880.036 341.867V333.8C880.036 332.695 879.141 331.8 878.036 331.8H869.972C868.867 331.8 867.972 332.695 867.972 333.8V341.867C867.972 342.972 868.867 343.867 869.972 343.867Z" fill="#9CDCFE"/>
              <path id="Vector_68" d="M869.972 359.957H878.036C879.141 359.957 880.036 359.062 880.036 357.957V349.89C880.036 348.785 879.141 347.89 878.036 347.89H869.972C868.867 347.89 867.972 348.785 867.972 349.89V357.957C867.972 359.062 868.867 359.957 869.972 359.957Z" fill="#9CDCFE"/>
              <path id="Vector_69" d="M837.799 295.598H845.864C846.968 295.598 847.864 294.702 847.864 293.598V285.53C847.864 284.426 846.968 283.53 845.864 283.53H837.799C836.695 283.53 835.799 284.426 835.799 285.53V293.598C835.799 294.702 836.695 295.598 837.799 295.598Z" fill="#9CDCFE"/>
              <path id="Vector_70" d="M837.799 311.688H845.864C846.968 311.688 847.864 310.792 847.864 309.687V301.62C847.864 300.516 846.968 299.62 845.864 299.62H837.799C836.695 299.62 835.799 300.516 835.799 301.62V309.688C835.799 310.792 836.695 311.688 837.799 311.688Z" fill="#9CDCFE"/>
              <path id="Vector_71" d="M837.799 327.777H845.864C846.968 327.777 847.864 326.882 847.864 325.777V317.71C847.864 316.605 846.968 315.71 845.864 315.71H837.799C836.695 315.71 835.799 316.605 835.799 317.71V325.777C835.799 326.882 836.695 327.777 837.799 327.777Z" fill="#9CDCFE"/>
              <path id="Vector_72" d="M837.799 343.867H845.864C846.968 343.867 847.864 342.972 847.864 341.867V333.8C847.864 332.695 846.968 331.8 845.864 331.8H837.799C836.695 331.8 835.799 332.695 835.799 333.8V341.867C835.799 342.972 836.695 343.867 837.799 343.867Z" fill="#9CDCFE"/>
              <path id="Vector_73" d="M837.799 359.957H845.864C846.968 359.957 847.864 359.062 847.864 357.957V349.89C847.864 348.785 846.968 347.89 845.864 347.89H837.799C836.695 347.89 835.799 348.785 835.799 349.89V357.957C835.799 359.062 836.695 359.957 837.799 359.957Z" fill="#9CDCFE"/>
            </g>
            <g id="Title">
              <path id="Vector_74" d="M826.248 276.491H857.414C858.803 276.491 859.928 275.365 859.928 273.977C859.928 272.588 858.803 271.463 857.414 271.463H826.248C824.86 271.463 823.734 272.588 823.734 273.977C823.734 275.365 824.86 276.491 826.248 276.491Z" fill="#9CDCFE"/>
            </g>
          </g>
          <g id="About">
            <path id="Vector_75" d="M826.602 158.12H857.768C859.156 158.12 860.282 156.995 860.282 155.606C860.282 154.218 859.156 153.092 857.768 153.092H826.602C825.213 153.092 824.088 154.218 824.088 155.606C824.088 156.995 825.213 158.12 826.602 158.12Z" fill="#4F79A4"/>
            <path id="Vector_76" d="M825.818 180.77H903.643C904.599 180.77 905.373 179.996 905.373 179.04C905.373 178.085 904.599 177.31 903.643 177.31H825.818C824.863 177.31 824.088 178.085 824.088 179.04C824.088 179.996 824.863 180.77 825.818 180.77Z" fill="#4F79A4"/>
            <path id="Vector_77" d="M825.818 208.448H903.643C904.599 208.448 905.373 207.673 905.373 206.718C905.373 205.763 904.599 204.988 903.643 204.988H825.818C824.863 204.988 824.088 205.763 824.088 206.718C824.088 207.673 824.863 208.448 825.818 208.448Z" fill="#4F79A4"/>
            <path id="Vector_78" d="M825.818 188.554H899.319C900.275 188.554 901.049 187.78 901.049 186.825C901.049 185.869 900.275 185.095 899.319 185.095H825.818C824.863 185.095 824.088 185.869 824.088 186.825C824.088 187.78 824.863 188.554 825.818 188.554Z" fill="#4F79A4"/>
            <path id="Vector_79" d="M825.818 216.232H899.319C900.275 216.232 901.049 215.458 901.049 214.502C901.049 213.547 900.275 212.772 899.319 212.772H825.818C824.863 212.772 824.088 213.547 824.088 214.502C824.088 215.458 824.863 216.232 825.818 216.232Z" fill="#4F79A4"/>
            <path id="Vector_80" d="M825.818 196.339H901.049C902.004 196.339 902.779 195.564 902.779 194.609C902.779 193.654 902.004 192.879 901.049 192.879H825.818C824.863 192.879 824.088 193.654 824.088 194.609C824.088 195.564 824.863 196.339 825.818 196.339Z" fill="#4F79A4"/>
            <path id="Vector_81" d="M825.818 224.017H901.049C902.004 224.017 902.779 223.242 902.779 222.287C902.779 221.331 902.004 220.557 901.049 220.557H825.818C824.863 220.557 824.088 221.331 824.088 222.287C824.088 223.242 824.863 224.017 825.818 224.017Z" fill="#4F79A4"/>
            <rect id="Rectangle 7" x="765.287" y="178.175" width="38.0481" height="38.0569" rx="8" fill="#4F79A4" fill-opacity="0.66"/>
            <rect id="Rectangle 8" x="772.205" y="185.095" width="38.0481" height="38.0569" rx="8" fill="#03CED9" fill-opacity="0.33"/>
            <rect id="Rectangle 9" x="768.746" y="181.635" width="38.0481" height="38.0569" rx="8" fill="#CCCCCC"/>
          </g>
        </g>
      </g>
    </g>
    <g id="Phone">
      <path id="Vector_82" d="M683.295 483.864H682.007V448.568C682.007 445.885 681.479 443.229 680.452 440.751C679.426 438.272 677.922 436.02 676.025 434.123C674.129 432.226 671.877 430.721 669.399 429.695C666.921 428.668 664.266 428.14 661.583 428.14H586.822C584.14 428.14 581.484 428.668 579.006 429.695C576.528 430.721 574.277 432.226 572.38 434.123C570.484 436.02 568.979 438.272 567.953 440.751C566.927 443.229 566.398 445.885 566.398 448.568V642.203C566.398 644.886 566.927 647.542 567.953 650.02C568.979 652.499 570.484 654.751 572.38 656.648C574.277 658.545 576.528 660.049 579.006 661.076C581.484 662.103 584.14 662.631 586.822 662.631H661.583C664.266 662.631 666.921 662.103 669.399 661.076C671.877 660.049 674.129 658.545 676.025 656.648C677.922 654.751 679.426 652.499 680.452 650.02C681.479 647.542 682.007 644.886 682.007 642.203V508.988H683.295V483.864Z" fill="#3F3D56"/>
      <g id="Frame 5">
        <g clip-path="url(#clip1)">
          <path id="Vector_83" d="M677.658 449.769V643.121C677.658 647.167 676.052 651.048 673.192 653.909C670.332 656.771 666.453 658.379 662.408 658.38H587.285C583.24 658.379 579.361 656.771 576.501 653.909C573.641 651.048 572.035 647.167 572.036 643.121V449.769C572.036 445.723 573.643 441.844 576.503 438.983C579.362 436.123 583.241 434.516 587.285 434.515H596.399C595.951 435.616 595.78 436.81 595.901 437.992C596.023 439.174 596.433 440.308 597.096 441.294C597.759 442.281 598.654 443.089 599.703 443.647C600.751 444.206 601.921 444.498 603.109 444.498H645.94C647.128 444.498 648.298 444.206 649.346 443.647C650.395 443.089 651.29 442.281 651.953 441.294C652.616 440.308 653.026 439.174 653.147 437.992C653.269 436.81 653.098 435.616 652.649 434.515H662.408C666.452 434.516 670.331 436.123 673.191 438.983C676.05 441.844 677.657 445.723 677.658 449.769Z" fill="#F2F2F2"/>
          <g id="Mockup_2">
            <g id="Bg_2">
              <path id="Vector 5_2" d="M521.746 468.725C511.286 479.852 520.762 515.112 524.54 524.281C533.011 544.951 518.888 542.545 518.493 561.307C518.098 580.07 556.405 590.47 591.802 579.948C634.491 567.259 618.466 560.683 676.364 562.735C734.261 564.787 740.325 513.426 736.663 507.364C733.56 502.228 740.311 480.027 731.168 476.379C726.859 474.66 726.899 460.034 712.083 463.128C695.881 466.511 682.06 442.589 665.435 454.596C648.81 466.603 647.954 438.841 624.212 446.786C600.47 454.731 573.136 445.701 559.487 452.896C533.334 466.682 534.71 454.932 521.746 468.725Z" fill="#0470DC"/>
              <ellipse id="Ellipse 8_2" cx="657.383" cy="450.513" rx="4.4736" ry="4.47463" fill="#E8F5FF"/>
            </g>
            <g id="Grid_2">
              <path id="Vector_84" d="M588.579 488.477H596.644C597.749 488.477 598.644 487.581 598.644 486.477V478.409C598.644 477.305 597.749 476.409 596.644 476.409H588.579C587.475 476.409 586.579 477.305 586.579 478.409V486.477C586.579 487.581 587.475 488.477 588.579 488.477Z" fill="#9CDCFE"/>
              <path id="Vector_85" d="M588.579 504.567H596.644C597.749 504.567 598.644 503.671 598.644 502.567V494.499C598.644 493.395 597.749 492.499 596.644 492.499H588.579C587.475 492.499 586.579 493.395 586.579 494.499V502.567C586.579 503.671 587.475 504.567 588.579 504.567Z" fill="#9CDCFE"/>
              <path id="Vector_86" d="M588.579 520.657H596.644C597.749 520.657 598.644 519.761 598.644 518.657V510.589C598.644 509.485 597.749 508.589 596.644 508.589H588.579C587.475 508.589 586.579 509.485 586.579 510.589V518.657C586.579 519.761 587.475 520.657 588.579 520.657Z" fill="#9CDCFE"/>
              <path id="Vector_87" d="M588.579 536.747H596.644C597.749 536.747 598.644 535.851 598.644 534.747V526.679C598.644 525.575 597.749 524.679 596.644 524.679H588.579C587.475 524.679 586.579 525.575 586.579 526.679V534.747C586.579 535.851 587.475 536.747 588.579 536.747Z" fill="#9CDCFE"/>
              <path id="Vector_88" d="M588.579 552.836H596.644C597.749 552.836 598.644 551.941 598.644 550.836V542.769C598.644 541.664 597.749 540.769 596.644 540.769H588.579C587.475 540.769 586.579 541.664 586.579 542.769V550.836C586.579 551.941 587.475 552.836 588.579 552.836Z" fill="#9CDCFE"/>
              <path id="Vector_89" d="M636.838 488.477H644.902C646.007 488.477 646.902 487.581 646.902 486.477V478.409C646.902 477.305 646.007 476.409 644.902 476.409H636.838C635.733 476.409 634.838 477.305 634.838 478.409V486.477C634.838 487.581 635.733 488.477 636.838 488.477Z" fill="#9CDCFE"/>
              <path id="Vector_90" d="M636.838 504.567H644.902C646.007 504.567 646.902 503.671 646.902 502.567V494.499C646.902 493.395 646.007 492.499 644.902 492.499H636.838C635.733 492.499 634.838 493.395 634.838 494.499V502.567C634.838 503.671 635.733 504.567 636.838 504.567Z" fill="#9CDCFE"/>
              <path id="Vector_91" d="M636.838 520.657H644.902C646.007 520.657 646.902 519.761 646.902 518.657V510.589C646.902 509.485 646.007 508.589 644.902 508.589H636.838C635.733 508.589 634.838 509.485 634.838 510.589V518.657C634.838 519.761 635.733 520.657 636.838 520.657Z" fill="#9CDCFE"/>
              <path id="Vector_92" d="M636.838 536.747H644.902C646.007 536.747 646.902 535.851 646.902 534.747V526.679C646.902 525.575 646.007 524.679 644.902 524.679H636.838C635.733 524.679 634.838 525.575 634.838 526.679V534.747C634.838 535.851 635.733 536.747 636.838 536.747Z" fill="#9CDCFE"/>
              <path id="Vector_93" d="M636.838 552.836H644.902C646.007 552.836 646.902 551.941 646.902 550.836V542.769C646.902 541.664 646.007 540.769 644.902 540.769H636.838C635.733 540.769 634.838 541.664 634.838 542.769V550.836C634.838 551.941 635.733 552.836 636.838 552.836Z" fill="#9CDCFE"/>
              <path id="Vector_94" d="M604.665 488.477H612.73C613.835 488.477 614.73 487.581 614.73 486.477V478.409C614.73 477.305 613.835 476.409 612.73 476.409H604.665C603.561 476.409 602.665 477.305 602.665 478.409V486.477C602.665 487.581 603.561 488.477 604.665 488.477Z" fill="#9CDCFE"/>
              <path id="Vector_95" d="M604.665 504.567H612.73C613.835 504.567 614.73 503.671 614.73 502.567V494.499C614.73 493.395 613.835 492.499 612.73 492.499H604.665C603.561 492.499 602.665 493.395 602.665 494.499V502.567C602.665 503.671 603.561 504.567 604.665 504.567Z" fill="#9CDCFE"/>
              <path id="Vector_96" d="M604.665 520.657H612.73C613.835 520.657 614.73 519.761 614.73 518.657V510.589C614.73 509.485 613.835 508.589 612.73 508.589H604.665C603.561 508.589 602.665 509.485 602.665 510.589V518.657C602.665 519.761 603.561 520.657 604.665 520.657Z" fill="#9CDCFE"/>
              <path id="Vector_97" d="M604.665 536.747H612.73C613.835 536.747 614.73 535.851 614.73 534.747V526.679C614.73 525.575 613.835 524.679 612.73 524.679H604.665C603.561 524.679 602.665 525.575 602.665 526.679V534.747C602.665 535.851 603.561 536.747 604.665 536.747Z" fill="#9CDCFE"/>
              <path id="Vector_98" d="M604.665 552.836H612.73C613.835 552.836 614.73 551.941 614.73 550.836V542.769C614.73 541.664 613.835 540.769 612.73 540.769H604.665C603.561 540.769 602.665 541.664 602.665 542.769V550.836C602.665 551.941 603.561 552.836 604.665 552.836Z" fill="#9CDCFE"/>
              <path id="Vector_99" d="M652.924 488.477H660.989C662.093 488.477 662.989 487.581 662.989 486.477V478.409C662.989 477.305 662.093 476.409 660.989 476.409H652.924C651.82 476.409 650.924 477.305 650.924 478.409V486.477C650.924 487.581 651.82 488.477 652.924 488.477Z" fill="#9CDCFE"/>
              <path id="Vector_100" d="M652.924 504.567H660.989C662.093 504.567 662.989 503.671 662.989 502.567V494.499C662.989 493.395 662.093 492.499 660.989 492.499H652.924C651.82 492.499 650.924 493.395 650.924 494.499V502.567C650.924 503.671 651.82 504.567 652.924 504.567Z" fill="#9CDCFE"/>
              <path id="Vector_101" d="M652.924 520.657H660.989C662.093 520.657 662.989 519.761 662.989 518.657V510.589C662.989 509.485 662.093 508.589 660.989 508.589H652.924C651.82 508.589 650.924 509.485 650.924 510.589V518.657C650.924 519.761 651.82 520.657 652.924 520.657Z" fill="#9CDCFE"/>
              <path id="Vector_102" d="M652.924 536.747H660.989C662.093 536.747 662.989 535.851 662.989 534.747V526.679C662.989 525.575 662.093 524.679 660.989 524.679H652.924C651.82 524.679 650.924 525.575 650.924 526.679V534.747C650.924 535.851 651.82 536.747 652.924 536.747Z" fill="#9CDCFE"/>
              <path id="Vector_103" d="M652.924 552.836H660.989C662.093 552.836 662.989 551.941 662.989 550.836V542.769C662.989 541.664 662.093 540.769 660.989 540.769H652.924C651.82 540.769 650.924 541.664 650.924 542.769V550.836C650.924 551.941 651.82 552.836 652.924 552.836Z" fill="#9CDCFE"/>
              <path id="Vector_104" d="M620.752 488.477H628.816C629.921 488.477 630.816 487.581 630.816 486.477V478.409C630.816 477.305 629.921 476.409 628.816 476.409H620.752C619.647 476.409 618.752 477.305 618.752 478.409V486.477C618.752 487.581 619.647 488.477 620.752 488.477Z" fill="#9CDCFE"/>
              <path id="Vector_105" d="M620.752 504.567H628.816C629.921 504.567 630.816 503.671 630.816 502.567V494.499C630.816 493.395 629.921 492.499 628.816 492.499H620.752C619.647 492.499 618.752 493.395 618.752 494.499V502.567C618.752 503.671 619.647 504.567 620.752 504.567Z" fill="#9CDCFE"/>
              <path id="Vector_106" d="M620.752 520.657H628.816C629.921 520.657 630.816 519.761 630.816 518.657V510.589C630.816 509.485 629.921 508.589 628.816 508.589H620.752C619.647 508.589 618.752 509.485 618.752 510.589V518.657C618.752 519.761 619.647 520.657 620.752 520.657Z" fill="#9CDCFE"/>
              <path id="Vector_107" d="M620.752 536.747H628.816C629.921 536.747 630.816 535.851 630.816 534.747V526.679C630.816 525.575 629.921 524.679 628.816 524.679H620.752C619.647 524.679 618.752 525.575 618.752 526.679V534.747C618.752 535.851 619.647 536.747 620.752 536.747Z" fill="#9CDCFE"/>
              <path id="Vector_108" d="M620.752 552.836H628.816C629.921 552.836 630.816 551.941 630.816 550.836V542.769C630.816 541.664 629.921 540.769 628.816 540.769H620.752C619.647 540.769 618.752 541.664 618.752 542.769V550.836C618.752 551.941 619.647 552.836 620.752 552.836Z" fill="#9CDCFE"/>
            </g>
            <g id="Title_2">
              <path id="Vector_109" d="M609.201 469.37H640.367C641.755 469.37 642.881 468.245 642.881 466.856C642.881 465.468 641.755 464.342 640.367 464.342H609.201C607.813 464.342 606.687 465.468 606.687 466.856C606.687 468.245 607.813 469.37 609.201 469.37Z" fill="#9CDCFE"/>
            </g>
          </g>
          <path id="Vector_110" d="M609.555 599.234H640.72C642.109 599.234 643.234 598.109 643.234 596.72C643.234 595.332 642.109 594.206 640.72 594.206H609.555C608.166 594.206 607.041 595.332 607.041 596.72C607.041 598.109 608.166 599.234 609.555 599.234Z" fill="#4F79A4"/>
          <path id="Vector_111" d="M591.043 611.505H611.796C612.513 611.505 613.094 610.924 613.094 610.207C613.094 609.491 612.513 608.91 611.796 608.91H591.043C590.327 608.91 589.746 609.491 589.746 610.207C589.746 610.924 590.327 611.505 591.043 611.505Z" fill="#4F79A4"/>
          <path id="Vector_112" d="M632.551 636.588H653.304C654.02 636.588 654.601 636.007 654.601 635.29C654.601 634.574 654.02 633.993 653.304 633.993H632.551C631.834 633.993 631.253 634.574 631.253 635.29C631.253 636.007 631.834 636.588 632.551 636.588Z" fill="#4F79A4"/>
          <path id="Vector_113" d="M590.611 614.101H603.582C604.06 614.101 604.447 613.713 604.447 613.236C604.447 612.758 604.06 612.371 603.582 612.371H590.611C590.134 612.371 589.746 612.758 589.746 613.236C589.746 613.713 590.134 614.101 590.611 614.101Z" fill="#4F79A4" fill-opacity="0.66"/>
          <path id="Vector_114" d="M640.766 639.183H653.736C654.214 639.183 654.601 638.796 654.601 638.318C654.601 637.841 654.214 637.453 653.736 637.453H640.766C640.288 637.453 639.901 637.841 639.901 638.318C639.901 638.796 640.288 639.183 640.766 639.183Z" fill="#4F79A4" fill-opacity="0.66"/>
          <path id="Vector_115" d="M590.558 616.694H620.929C621.275 616.694 621.481 616.308 621.288 616.021C621.208 615.901 621.073 615.829 620.929 615.829H590.558C590.212 615.829 590.006 616.216 590.199 616.503C590.28 616.623 590.414 616.694 590.558 616.694Z" fill="#A5ADB1"/>
          <path id="Vector_116" d="M623.418 641.777H653.789C654.135 641.777 654.341 641.391 654.148 641.104C654.068 640.984 653.933 640.912 653.789 640.912H623.418C623.072 640.912 622.866 641.299 623.059 641.586C623.14 641.706 623.274 641.777 623.418 641.777Z" fill="#A5ADB1"/>
          <path id="Vector_117" d="M591.387 618.424H619.236C619.575 618.424 619.782 618.053 619.604 617.764C619.525 617.637 619.386 617.559 619.236 617.559H591.387C591.048 617.559 590.841 617.931 591.019 618.219C591.097 618.347 591.237 618.424 591.387 618.424Z" fill="#A5ADB1"/>
          <path id="Vector_118" d="M625.976 643.507H653.825C654.164 643.507 654.371 643.136 654.193 642.847C654.114 642.72 653.975 642.642 653.825 642.642H625.976C625.637 642.642 625.43 643.014 625.608 643.302C625.687 643.43 625.826 643.507 625.976 643.507Z" fill="#A5ADB1"/>
          <path id="Vector_119" d="M591.399 620.154H620.089C620.43 620.154 620.637 619.777 620.454 619.489C620.374 619.365 620.237 619.289 620.089 619.289H591.399C591.057 619.289 590.851 619.666 591.034 619.954C591.113 620.078 591.251 620.154 591.399 620.154Z" fill="#A5ADB1"/>
          <path id="Vector_120" d="M624.271 645.237H653.801C654.145 645.237 654.351 644.855 654.163 644.568C654.083 644.446 653.947 644.372 653.801 644.372H624.271C623.927 644.372 623.721 644.754 623.909 645.041C623.989 645.163 624.125 645.237 624.271 645.237Z" fill="#A5ADB1"/>
          <path id="Vector_121" d="M591.375 621.884H618.383C618.719 621.884 618.927 621.517 618.754 621.229C618.676 621.099 618.535 621.019 618.383 621.019H591.375C591.038 621.019 590.831 621.386 591.004 621.674C591.082 621.804 591.223 621.884 591.375 621.884Z" fill="#A5ADB1"/>
          <path id="Vector_122" d="M626.829 646.967H653.837C654.173 646.967 654.381 646.6 654.208 646.312C654.13 646.182 653.989 646.102 653.837 646.102H626.829C626.493 646.102 626.285 646.469 626.458 646.757C626.536 646.887 626.677 646.967 626.829 646.967Z" fill="#A5ADB1"/>
          <ellipse id="Ellipse 9" cx="582.828" cy="611.505" rx="3.45892" ry="3.45972" fill="#C4C4C4"/>
          <ellipse id="Ellipse 10" cx="661.519" cy="637.453" rx="3.45892" ry="3.45971" fill="#C4C4C4"/>
        </g>
      </g>
      <path id="Vector_123" d="M623.038 438.519C624.232 438.519 625.2 437.551 625.2 436.357C625.2 435.162 624.232 434.194 623.038 434.194C621.844 434.194 620.876 435.162 620.876 436.357C620.876 437.551 621.844 438.519 623.038 438.519Z" fill="#6C63FF"/>
    </g>
    <g id="Desktop">
      <path id="Vector_124" d="M459.633 386.122H398.088L400.175 358.995H457.547L459.633 386.122Z" fill="#F2F2F2"/>
      <path id="Vector_125" d="M463.806 382.992H394.959V389.253H463.806V382.992Z" fill="#F2F2F2"/>
      <path id="Vector_126" d="M546.735 184.23H311.509C309.849 184.23 308.257 184.889 307.083 186.063C305.909 187.237 305.25 188.83 305.25 190.49V333.954H552.994V190.49C552.994 188.83 552.334 187.237 551.161 186.063C549.987 184.889 548.395 184.23 546.735 184.23Z" fill="#3F3D56"/>
      <path id="Vector_127" d="M305.25 333.954V357.43C305.25 358.252 305.412 359.066 305.726 359.825C306.041 360.585 306.502 361.275 307.083 361.856C307.664 362.438 308.354 362.899 309.113 363.213C309.873 363.528 310.687 363.69 311.509 363.69H546.735C547.557 363.69 548.371 363.528 549.13 363.213C549.89 362.899 550.579 362.438 551.161 361.856C551.742 361.275 552.203 360.585 552.517 359.825C552.832 359.066 552.994 358.252 552.994 357.43V333.954H305.25Z" fill="#F2F2F2"/>
      <path id="Vector_128" d="M540.998 197.272H317.767V322.477H540.998V197.272Z" fill="#E6E6E6"/>
      <path id="Vector_129" d="M429.382 354.821C432.839 354.821 435.641 352.018 435.641 348.561C435.641 345.104 432.839 342.301 429.382 342.301C425.926 342.301 423.124 345.104 423.124 348.561C423.124 352.018 425.926 354.821 429.382 354.821Z" fill="#3F3D56"/>
      <path id="Vector_130" d="M324.728 202.56C325.384 202.56 325.915 202.028 325.915 201.372C325.915 200.716 325.384 200.184 324.728 200.184C324.072 200.184 323.54 200.716 323.54 201.372C323.54 202.028 324.072 202.56 324.728 202.56Z" fill="white"/>
      <path id="Vector_131" d="M329.236 202.56C329.892 202.56 330.424 202.028 330.424 201.372C330.424 200.716 329.892 200.184 329.236 200.184C328.58 200.184 328.048 200.716 328.048 201.372C328.048 202.028 328.58 202.56 329.236 202.56Z" fill="white"/>
      <path id="Vector_132" d="M333.745 202.56C334.401 202.56 334.933 202.028 334.933 201.372C334.933 200.716 334.401 200.184 333.745 200.184C333.089 200.184 332.557 200.716 332.557 201.372C332.557 202.028 333.089 202.56 333.745 202.56Z" fill="white"/>
      <g id="Frame 3">
        <g clip-path="url(#clip2)">
          <path id="Vector_133" d="M534.564 205.409H323.54V310.561H534.564V205.409Z" fill="white"/>
          <g id="Mockup_3">
            <g id="Bg_3">
              <path id="Vector 5_3" d="M338.554 230.381C329.558 239.951 337.708 270.278 340.957 278.165C348.243 295.943 336.096 293.874 335.756 310.011C335.416 326.148 368.364 335.094 398.81 326.044C435.526 315.13 421.743 309.474 471.541 311.239C521.338 313.003 526.554 268.828 523.404 263.615C520.735 259.197 526.541 240.101 518.677 236.964C514.972 235.486 515.006 222.906 502.262 225.567C488.327 228.477 476.44 207.901 462.141 218.229C447.842 228.556 447.106 204.678 426.685 211.511C406.264 218.345 382.754 210.578 371.015 216.767C348.521 228.624 349.705 218.518 338.554 230.381Z" fill="#0470DC"/>
              <ellipse id="Ellipse 7_2" rx="1.2971" ry="1.29739" transform="matrix(1 0 0 -1 496.787 218.395)" fill="#FECB42"/>
              <ellipse id="Ellipse 8_3" cx="455.215" cy="214.717" rx="3.84774" ry="3.84862" fill="#E8F5FF"/>
            </g>
            <g id="Grid_3">
              <path id="Vector_134" d="M396.317 247.37H402.694C403.798 247.37 404.694 246.474 404.694 245.37V238.99C404.694 237.886 403.798 236.99 402.694 236.99H396.317C395.213 236.99 394.317 237.886 394.317 238.99V245.37C394.317 246.474 395.213 247.37 396.317 247.37Z" fill="#9CDCFE"/>
              <path id="Vector_135" d="M396.317 261.208H402.694C403.798 261.208 404.694 260.313 404.694 259.208V252.829C404.694 251.725 403.798 250.829 402.694 250.829H396.317C395.213 250.829 394.317 251.725 394.317 252.829V259.208C394.317 260.313 395.213 261.208 396.317 261.208Z" fill="#9CDCFE"/>
              <path id="Vector_136" d="M396.317 275.047H402.694C403.798 275.047 404.694 274.152 404.694 273.047V266.668C404.694 265.564 403.798 264.668 402.694 264.668H396.317C395.213 264.668 394.317 265.564 394.317 266.668V273.047C394.317 274.152 395.213 275.047 396.317 275.047Z" fill="#9CDCFE"/>
              <path id="Vector_137" d="M396.317 288.886H402.694C403.798 288.886 404.694 287.991 404.694 286.886V280.507C404.694 279.403 403.798 278.507 402.694 278.507H396.317C395.213 278.507 394.317 279.403 394.317 280.507V286.886C394.317 287.991 395.213 288.886 396.317 288.886Z" fill="#9CDCFE"/>
              <path id="Vector_138" d="M396.317 302.725H402.694C403.798 302.725 404.694 301.83 404.694 300.725V294.346C404.694 293.241 403.798 292.346 402.694 292.346H396.317C395.213 292.346 394.317 293.241 394.317 294.346V300.725C394.317 301.83 395.213 302.725 396.317 302.725Z" fill="#9CDCFE"/>
              <path id="Vector_139" d="M437.824 247.37H444.201C445.305 247.37 446.201 246.474 446.201 245.37V238.99C446.201 237.886 445.305 236.99 444.201 236.99H437.824C436.719 236.99 435.824 237.886 435.824 238.99V245.37C435.824 246.474 436.719 247.37 437.824 247.37Z" fill="#9CDCFE"/>
              <path id="Vector_140" d="M437.824 261.208H444.201C445.305 261.208 446.201 260.313 446.201 259.208V252.829C446.201 251.725 445.305 250.829 444.201 250.829H437.824C436.719 250.829 435.824 251.725 435.824 252.829V259.208C435.824 260.313 436.719 261.208 437.824 261.208Z" fill="#9CDCFE"/>
              <path id="Vector_141" d="M437.824 275.047H444.201C445.305 275.047 446.201 274.152 446.201 273.047V266.668C446.201 265.564 445.305 264.668 444.201 264.668H437.824C436.719 264.668 435.824 265.564 435.824 266.668V273.047C435.824 274.152 436.719 275.047 437.824 275.047Z" fill="#9CDCFE"/>
              <path id="Vector_142" d="M437.824 288.886H444.201C445.305 288.886 446.201 287.991 446.201 286.886V280.507C446.201 279.403 445.305 278.507 444.201 278.507H437.824C436.719 278.507 435.824 279.403 435.824 280.507V286.886C435.824 287.991 436.719 288.886 437.824 288.886Z" fill="#9CDCFE"/>
              <path id="Vector_143" d="M437.824 302.725H444.201C445.305 302.725 446.201 301.83 446.201 300.725V294.346C446.201 293.241 445.305 292.346 444.201 292.346H437.824C436.719 292.346 435.824 293.241 435.824 294.346V300.725C435.824 301.83 436.719 302.725 437.824 302.725Z" fill="#9CDCFE"/>
              <path id="Vector_144" d="M410.153 247.37H416.529C417.634 247.37 418.529 246.474 418.529 245.37V238.99C418.529 237.886 417.634 236.99 416.529 236.99H410.153C409.048 236.99 408.153 237.886 408.153 238.99V245.37C408.153 246.474 409.048 247.37 410.153 247.37Z" fill="#9CDCFE"/>
              <path id="Vector_145" d="M410.153 261.208H416.529C417.634 261.208 418.529 260.313 418.529 259.208V252.829C418.529 251.725 417.634 250.829 416.529 250.829H410.153C409.048 250.829 408.153 251.725 408.153 252.829V259.208C408.153 260.313 409.048 261.208 410.153 261.208Z" fill="#9CDCFE"/>
              <path id="Vector_146" d="M410.153 275.047H416.529C417.634 275.047 418.529 274.152 418.529 273.047V266.668C418.529 265.564 417.634 264.668 416.529 264.668H410.153C409.048 264.668 408.153 265.564 408.153 266.668V273.047C408.153 274.152 409.048 275.047 410.153 275.047Z" fill="#9CDCFE"/>
              <path id="Vector_147" d="M410.153 288.886H416.529C417.634 288.886 418.529 287.991 418.529 286.886V280.507C418.529 279.403 417.634 278.507 416.529 278.507H410.153C409.048 278.507 408.153 279.403 408.153 280.507V286.886C408.153 287.991 409.048 288.886 410.153 288.886Z" fill="#9CDCFE"/>
              <path id="Vector_148" d="M410.153 302.725H416.529C417.634 302.725 418.529 301.83 418.529 300.725V294.346C418.529 293.241 417.634 292.346 416.529 292.346H410.153C409.048 292.346 408.153 293.241 408.153 294.346V300.725C408.153 301.83 409.048 302.725 410.153 302.725Z" fill="#9CDCFE"/>
              <path id="Vector_149" d="M451.659 247.37H458.036C459.141 247.37 460.036 246.474 460.036 245.37V238.99C460.036 237.886 459.141 236.99 458.036 236.99H451.659C450.555 236.99 449.659 237.886 449.659 238.99V245.37C449.659 246.474 450.555 247.37 451.659 247.37Z" fill="#9CDCFE"/>
              <path id="Vector_150" d="M451.659 261.208H458.036C459.141 261.208 460.036 260.313 460.036 259.208V252.829C460.036 251.725 459.141 250.829 458.036 250.829H451.659C450.555 250.829 449.659 251.725 449.659 252.829V259.208C449.659 260.313 450.555 261.208 451.659 261.208Z" fill="#9CDCFE"/>
              <path id="Vector_151" d="M451.659 275.047H458.036C459.141 275.047 460.036 274.152 460.036 273.047V266.668C460.036 265.564 459.141 264.668 458.036 264.668H451.659C450.555 264.668 449.659 265.564 449.659 266.668V273.047C449.659 274.152 450.555 275.047 451.659 275.047Z" fill="#9CDCFE"/>
              <path id="Vector_152" d="M451.659 288.886H458.036C459.141 288.886 460.036 287.991 460.036 286.886V280.507C460.036 279.403 459.141 278.507 458.036 278.507H451.659C450.555 278.507 449.659 279.403 449.659 280.507V286.886C449.659 287.991 450.555 288.886 451.659 288.886Z" fill="#9CDCFE"/>
              <path id="Vector_153" d="M451.659 302.725H458.036C459.141 302.725 460.036 301.83 460.036 300.725V294.346C460.036 293.241 459.141 292.346 458.036 292.346H451.659C450.555 292.346 449.659 293.241 449.659 294.346V300.725C449.659 301.83 450.555 302.725 451.659 302.725Z" fill="#9CDCFE"/>
              <path id="Vector_154" d="M423.988 247.37H430.365C431.47 247.37 432.365 246.474 432.365 245.37V238.99C432.365 237.886 431.47 236.99 430.365 236.99H423.988C422.884 236.99 421.988 237.886 421.988 238.99V245.37C421.988 246.474 422.884 247.37 423.988 247.37Z" fill="#9CDCFE"/>
              <path id="Vector_155" d="M423.988 261.208H430.365C431.47 261.208 432.365 260.313 432.365 259.208V252.829C432.365 251.725 431.47 250.829 430.365 250.829H423.988C422.884 250.829 421.988 251.725 421.988 252.829V259.208C421.988 260.313 422.884 261.208 423.988 261.208Z" fill="#9CDCFE"/>
              <path id="Vector_156" d="M423.988 275.047H430.365C431.47 275.047 432.365 274.152 432.365 273.047V266.668C432.365 265.564 431.47 264.668 430.365 264.668H423.988C422.884 264.668 421.988 265.564 421.988 266.668V273.047C421.988 274.152 422.884 275.047 423.988 275.047Z" fill="#9CDCFE"/>
              <path id="Vector_157" d="M423.988 288.886H430.365C431.47 288.886 432.365 287.991 432.365 286.886V280.507C432.365 279.403 431.47 278.507 430.365 278.507H423.988C422.884 278.507 421.988 279.403 421.988 280.507V286.886C421.988 287.991 422.884 288.886 423.988 288.886Z" fill="#9CDCFE"/>
              <path id="Vector_158" d="M423.988 302.725H430.365C431.47 302.725 432.365 301.83 432.365 300.725V294.346C432.365 293.241 431.47 292.346 430.365 292.346H423.988C422.884 292.346 421.988 293.241 421.988 294.346V300.725C421.988 301.83 422.884 302.725 423.988 302.725Z" fill="#9CDCFE"/>
            </g>
            <g id="Title_3">
              <path id="Vector_159" d="M413.774 230.936H440.58C441.774 230.936 442.742 229.968 442.742 228.774C442.742 227.579 441.774 226.611 440.58 226.611H413.774C412.58 226.611 411.612 227.579 411.612 228.774C411.612 229.968 412.58 230.936 413.774 230.936Z" fill="#9CDCFE"/>
            </g>
          </g>
        </g>
      </g>
    </g>
  </g>
  <defs>
    <clipPath id="clip0">
      <rect x="738.575" y="121.038" width="208.305" height="276.449" fill="white"/>
    </clipPath>
    <clipPath id="clip1">
      <rect x="572.036" y="434.515" width="105.622" height="223.864" fill="white"/>
    </clipPath>
    <clipPath id="clip2">
      <rect x="323.54" y="205.409" width="211.024" height="105.151" fill="white"/>
    </clipPath>
  </defs>
</svg>
