<svg width="512" height="512" viewBox="0 0 512 512" fill="none" xmlns="http://www.w3.org/2000/svg">
<path d="M330.366 325.818C358.215 325.818 380.79 303.243 380.79 275.394C380.79 247.546 358.215 224.97 330.366 224.97C302.518 224.97 279.942 247.546 279.942 275.394C279.942 303.243 302.518 325.818 330.366 325.818Z" fill="#4F79A4"/>
<path fill-rule="evenodd" clip-rule="evenodd" d="M86.833 53.3333C68.3315 53.3333 53.333 68.3317 53.333 86.8333V425.167C53.333 443.668 68.3315 458.667 86.833 458.667H425.166C443.668 458.667 458.666 443.668 458.666 425.167V86.8332C458.666 68.3317 443.668 53.3333 425.166 53.3333H86.833ZM233.397 108.606C233.397 95.7528 243.817 85.3333 256.67 85.3333C269.523 85.3333 279.943 95.7528 279.943 108.606V192.549C294.635 183.587 311.898 178.424 330.366 178.424C383.921 178.424 427.336 221.839 427.336 275.394C427.336 328.949 383.921 372.364 330.366 372.364C276.811 372.364 233.396 328.949 233.396 275.394C233.396 272.759 233.502 270.149 233.708 267.568C233.504 266.328 233.397 265.055 233.397 263.757V224.561H179.093V325.747C179.093 325.786 179.125 325.818 179.164 325.818C179.205 325.818 179.238 325.853 179.234 325.894C179.141 327.15 179.093 328.418 179.093 329.697C179.093 357.545 201.669 380.121 229.517 380.121C230.797 380.121 232.065 380.073 233.32 379.98C233.361 379.977 233.396 380.009 233.396 380.05C233.396 380.089 233.428 380.121 233.467 380.121H256.669C269.522 380.121 279.942 390.541 279.942 403.394C279.942 416.247 269.522 426.667 256.669 426.667H225.677C225.656 426.667 225.639 426.649 225.639 426.628C225.639 426.607 225.622 426.59 225.601 426.589C175.161 424.586 134.629 384.053 132.625 333.613C132.625 333.592 132.607 333.576 132.587 333.576C132.565 333.576 132.548 333.558 132.548 333.537V224.561H108.969C95.9468 224.561 85.3901 214.005 85.3901 200.982C85.3901 187.96 95.9468 177.403 108.969 177.403H132.548V147.394C132.548 134.541 142.967 124.121 155.82 124.121C168.674 124.121 179.093 134.541 179.093 147.394V177.403H233.397V108.606Z" fill="#4F79A4"/>
</svg>
