<svg width="1702" height="1304" viewBox="0 0 1702 1304" fill="none" xmlns="http://www.w3.org/2000/svg">
<path d="M174.876 296.666C264.907 222.784 343.788 38.2029 453.553 199.854C563.317 361.506 721.422 259.073 823.8 296.666C921.402 332.505 1069.72 272.866 1206.55 245.49C1311.32 224.53 1409.34 222.481 1472.72 296.666C1551.49 388.855 1388.24 523.213 1612.76 752.105C1837.28 980.996 1575.8 1064.61 1472.72 1166.92C1316.12 1322.37 740.369 1225.57 594.599 1290.68C448.829 1355.79 419.136 1159.89 174.876 1166.92C-69.3841 1173.96 -46.9297 478.685 174.876 296.666Z" fill="url(#paint0_linear)" fill-opacity="0.66"/>
<path d="M165.168 100.247C255.241 26.3338 253.457 36.9003 443.973 3.39412C634.489 -30.112 743.554 197.858 814.391 100.247C885.227 2.63689 917.947 100.247 1197.32 49.049C1324.71 25.703 1400.2 26.0302 1463.61 100.247C1542.41 192.476 1816.96 531.712 1603.71 555.882C1390.46 580.053 1566.73 868.523 1463.61 970.877C1306.94 1126.39 752.934 959.756 585.084 1094.69C417.233 1229.62 -72.6711 970.877 165.168 970.877C403.008 970.877 -56.7393 282.345 165.168 100.247Z" fill="url(#paint1_linear)"/>
<path d="M168.876 155.237C201.539 41.609 309.722 -26.1707 447.553 58.4257C585.383 143.022 715.421 117.644 817.8 155.237C915.401 191.076 1063.72 131.438 1200.56 104.061C1305.32 83.1013 1403.34 81.052 1466.72 155.237C1545.49 247.426 1382.24 381.785 1606.76 610.676C1831.28 839.568 1569.8 923.183 1466.72 1025.49C1310.12 1180.94 879.65 1051.78 588.598 1149.25C297.546 1246.72 199.759 1116.87 136.213 1025.49C72.6666 934.12 140.213 533.366 117.213 402.866C94.2127 272.366 136.213 268.866 168.876 155.237Z" fill="url(#paint2_linear)"/>
<circle cx="768.713" cy="83.3657" r="10.5" fill="#FECB42" fill-opacity="0.66"/>
<circle cx="78.2129" cy="359.866" r="16" fill="#E8F5FF"/>
<circle cx="275.213" cy="1247.87" r="16" fill="#13F1FC" fill-opacity="0.33"/>
<defs>
<linearGradient id="paint0_linear" x1="113.777" y1="271.354" x2="1689.76" y2="686.944" gradientUnits="userSpaceOnUse">
<stop stop-color="#0465DC"/>
<stop offset="1" stop-color="#13F1FC"/>
</linearGradient>
<linearGradient id="paint1_linear" x1="203.291" y1="53.4115" x2="1779.99" y2="469.201" gradientUnits="userSpaceOnUse">
<stop stop-color="#0465DC" stop-opacity="0.33"/>
<stop offset="1" stop-color="#13F1FC" stop-opacity="0.33"/>
</linearGradient>
<linearGradient id="paint2_linear" x1="107.776" y1="129.927" x2="1683.76" y2="545.515" gradientUnits="userSpaceOnUse">
<stop stop-color="#0465DC"/>
<stop offset="1" stop-color="#13F1FC"/>
</linearGradient>
</defs>
</svg>
