<svg viewBox="0 0 1440 918" fill="none" preserveAspectRatio="xMinYMax slice">
  <circle opacity="0.2" cx="333" cy="205" r="6" fill="#70DDFF"/>
  <ellipse opacity="0.2" cx="1256" cy="195" rx="6" ry="5" fill="#13F1FC"/>
  <circle opacity="0.2" cx="112.5" cy="495.5" r="3.5" fill="#13F1FC"/>
  <path opacity="0.2" d="M460.18 829.5C169.879 848.31 35.4754 770 0 743V630.5H1440V845C1203.66 1021 895.435 795.465 663.04 814.5C522.637 826 529.632 825 460.18 829.5Z" fill="url(#paint0_linear)"/>
  <path opacity="0.2" d="M1440 2H0V740C423 704 397.5 928 814.5 851C1039.82 809.394 1226.5 922 1440 843V2Z" fill="url(#paint1_linear)"/>
  <path d="M0 0H1440V845C1116 690 1062 925.5 629 800C408.927 736.215 294 676.5 0 740.5V0Z" fill="url(#paint2_linear)"/>
  <defs>
    <linearGradient id="paint0_linear" x1="42.4702" y1="553.001" x2="1679.49" y2="995.928" gradientUnits="userSpaceOnUse">
      <stop stop-color="#0465DC"/>
      <stop offset="1" stop-color="#13F1FC"/>
    </linearGradient>
    <linearGradient id="paint1_linear" x1="81.5" y1="763" x2="1440" y2="-288.5" gradientUnits="userSpaceOnUse">
      <stop stop-color="#0470DC"/>
      <stop offset="1" stop-color="#13F1FC"/>
    </linearGradient>
    <linearGradient id="paint2_linear" x1="0.000103962" y1="-63.0002" x2="1858.5" y2="1111" gradientUnits="userSpaceOnUse">
      <stop stop-color="#0470DC"/>
      <stop offset="1" stop-color="#13F1FC"/>
    </linearGradient>
  </defs>
</svg>
