<svg width="451" height="500" viewBox="0 0 451 500" fill="none"
  xmlns="http://www.w3.org/2000/svg">
  <path d="M25.3034 36.1946C57.032 2.82516 136.282 7.89597 202.091 1.10778C267.899 -5.68041 320.012 -24.4213 361.806 -11.1961C403.478 2.04195 434.845 47.3655 469.678 98.7189C504.499 149.953 542.92 207.323 541.601 266.332C540.294 325.461 499.258 386.348 444.08 411.08C388.792 435.945 319.36 424.656 272.004 397.177C224.539 369.829 199.137 326.171 161.65 292.951C124.15 259.611 74.8078 236.683 42.0938 189.088C9.39231 141.612 -6.41262 69.6834 25.3034 36.1946Z" fill="url(#paint0_linear)"/>
  <path d="M417.437 509.341C389.055 515.591 366.226 514.653 336.615 518.434C306.974 522.31 270.61 530.713 223.605 518.906C176.63 507.003 119.045 474.794 102.753 428.687C86.4314 382.676 111.374 322.861 149.375 273.329C187.346 223.892 238.442 184.864 297.011 168.525C355.705 152.12 422.064 158.464 450.312 197.989C478.657 237.543 468.892 310.278 473.146 362.21C477.399 414.143 495.547 445.338 487.698 467.511C479.819 489.78 445.819 503.092 417.437 509.341Z" fill="url(#paint1_linear)"/>
  <path d="M477.088 146.036C493.004 203.324 538.686 248.696 528.647 270.373C518.608 292.05 452.794 290.118 408.893 285.981C364.992 281.845 342.834 275.399 299.055 287.268C255.222 299.223 189.546 329.472 149.079 315.332C108.697 301.246 93.3865 242.803 112.065 199.988C130.659 157.119 183.294 129.793 222.52 103.153C261.746 76.5131 287.531 50.4211 329.734 25.056C371.937 -0.309096 430.644 -24.8941 452.945 -2.66441C475.33 19.6184 461.257 88.8007 477.088 146.036Z" fill="url(#paint2_linear)"/>
  <defs>
    <linearGradient id="paint0_linear" x1="23.2463" y1="239.071" x2="534.207" y2="185.429" gradientUnits="userSpaceOnUse">
      <stop stop-color="#70DDFF"/>
      <stop offset="1" stop-color="#0470DC"/>
    </linearGradient>
    <linearGradient id="paint1_linear" x1="507.696" y1="402.429" x2="126.184" y2="285.371" gradientUnits="userSpaceOnUse">
      <stop stop-color="#0470DC" stop-opacity="0.66"/>
      <stop offset="1" stop-color="#70DDFF"/>
    </linearGradient>
    <linearGradient id="paint2_linear" x1="464.673" y1="3.92974" x2="102" y2="291.5" gradientUnits="userSpaceOnUse">
      <stop stop-color="#0470DC"/>
      <stop offset="1" stop-color="#0470DC" stop-opacity="0.66"/>
    </linearGradient>
  </defs>
</svg>
