<svg width="1441" height="1305" viewBox="0 0 1441 1305" fill="none"
  xmlns="http://www.w3.org/2000/svg">
  <path d="M125.663 296.8C215.694 222.918 294.576 38.3372 404.34 199.989C514.105 361.64 672.209 259.207 774.587 296.8C872.189 332.639 1020.51 273 1157.34 245.624C1262.1 224.664 1360.13 222.615 1423.51 296.8C1502.27 388.989 1339.02 523.347 1563.54 752.239C1788.06 981.131 1526.58 1064.75 1423.51 1167.06C1266.91 1322.5 691.156 1225.7 545.386 1290.81C399.616 1355.93 369.923 1160.02 125.663 1167.06C-118.597 1174.09 -96.1426 478.82 125.663 296.8Z" fill="url(#paint0_linear)" fill-opacity="0.66"/>
  <path d="M115.955 100.382C206.028 26.4681 204.244 37.0345 394.76 3.52839C585.276 -29.9778 694.341 197.992 765.178 100.382C836.014 2.77116 868.734 100.382 1148.11 49.1833C1275.5 25.8373 1350.99 26.1645 1414.4 100.382C1493.2 192.61 1767.74 531.846 1554.49 556.016C1341.25 580.187 1517.52 868.657 1414.4 971.011C1257.72 1126.52 703.722 959.89 535.871 1094.82C368.02 1229.76 -121.884 971.011 115.955 971.011C353.795 971.012 -105.952 282.48 115.955 100.382Z" fill="url(#paint1_linear)"/>
  <path d="M119.663 155.372C152.326 41.7433 260.51 -26.0364 398.34 58.56C536.17 143.156 666.208 117.779 768.587 155.372C866.189 191.211 1014.51 131.572 1151.34 104.195C1256.1 83.2356 1354.13 81.1863 1417.51 155.372C1496.27 247.561 1333.02 381.919 1557.54 610.81C1782.06 839.702 1520.58 923.317 1417.51 1025.63C1260.91 1181.07 830.437 1051.92 539.385 1149.39C248.334 1246.85 150.546 1117 87 1025.63C23.4539 934.254 91 533.5 68 403C44.9999 272.5 87 269 119.663 155.372Z" fill="url(#paint2_linear)"/>
  <circle cx="719.5" cy="83.5" r="10.5" fill="#FECB42" fill-opacity="0.66"/>
  <circle cx="29" cy="360" r="16" fill="#E8F5FF"/>
  <circle cx="226" cy="1248" r="16" fill="#13F1FC" fill-opacity="0.33"/>
  <defs>
    <linearGradient id="paint0_linear" x1="64.5637" y1="271.489" x2="1640.55" y2="687.078" gradientUnits="userSpaceOnUse">
      <stop stop-color="#0465DC"/>
      <stop offset="1" stop-color="#13F1FC"/>
    </linearGradient>
    <linearGradient id="paint1_linear" x1="154.078" y1="53.5458" x2="1730.78" y2="469.335" gradientUnits="userSpaceOnUse">
      <stop stop-color="#0465DC" stop-opacity="0.33"/>
      <stop offset="1" stop-color="#13F1FC" stop-opacity="0.33"/>
    </linearGradient>
    <linearGradient id="paint2_linear" x1="58.5631" y1="130.061" x2="1634.55" y2="545.65" gradientUnits="userSpaceOnUse">
      <stop stop-color="#0465DC"/>
      <stop offset="1" stop-color="#13F1FC"/>
    </linearGradient>
  </defs>
</svg>
